<svg width="351" height="45" viewBox="0 0 351 45" fill="none" xmlns="http://www.w3.org/2000/svg">
<g clip-path="url(#clip0_4438_13183)">
<path fill-rule="evenodd" clip-rule="evenodd" d="M0 34.331L19.5975 35.22C38.9025 36.1091 78.0975 37.8873 117 34.331C155.902 30.7746 195.097 21.8838 234 18.3275C272.902 14.7712 312.098 16.5493 331.402 17.4384L351 18.3275V45H331.402C312.098 45 272.902 45 234 45C195.097 45 155.902 45 117 45C78.0975 45 38.9025 45 19.5975 45H0V34.331Z" fill="#8FB5D6"/>
<path fill-rule="evenodd" clip-rule="evenodd" d="M290.031 21.4201C290.031 21.2212 290.195 21.0601 290.397 21.0601C312.156 21.0601 329.076 21.1501 358.98 23.4011C359.181 23.4163 359.332 23.5893 359.316 23.7875C359.301 23.9857 359.125 24.1342 358.924 24.119C329.047 21.87 312.147 21.7801 290.397 21.7801C290.195 21.7801 290.031 21.6189 290.031 21.4201ZM128.239 37.7532C128.264 37.9505 128.122 38.1302 127.921 38.1546C102.026 41.308 78.9695 41.4874 45.8741 40.4972C45.6722 40.4911 45.5136 40.3251 45.5197 40.1264C45.5258 39.9277 45.6944 39.7715 45.8963 39.7775C78.9789 40.7673 101.991 40.5867 127.832 37.4401C128.032 37.4157 128.215 37.5558 128.239 37.7532ZM24.0393 39.299C24.0467 39.1003 24.2163 38.9452 24.4181 38.9525C28.3074 39.0931 32.1029 39.1958 35.5606 39.2358C35.7625 39.2382 35.9242 39.4012 35.9219 39.6001C35.9195 39.7989 35.7539 39.9581 35.552 39.9558C32.0864 39.9157 28.2845 39.8128 24.3913 39.672C24.1895 39.6647 24.0319 39.4977 24.0393 39.299Z" fill="#E3EEF7"/>
</g>
<defs>
<clipPath id="clip0_4438_13183">
<rect width="351" height="45" fill="white" transform="matrix(-1 0 0 1 351 0)"/>
</clipPath>
</defs>
</svg>
