<svg width="583" height="88" viewBox="0 0 583 88" fill="none" xmlns="http://www.w3.org/2000/svg">
<g clip-path="url(#clip0_4028_2201)">
<path d="M34.5622 51.3393C34.0896 41.6913 36.186 32.9091 40.9153 24.8003C46.9842 14.3971 55.5012 6.60178 66.9815 2.94283C86.7373 -3.35255 103.906 1.58899 117.913 16.7556C127.357 26.9807 131.159 39.4219 130.125 53.2703C129.88 56.5658 128.899 59.8044 128.242 63.0679C128.04 64.0726 127.514 64.5179 126.373 64.7067C121.058 65.576 115.735 66.2244 110.352 65.6651C102.009 64.7958 94.4903 62.113 89.0859 55.2583C84.8647 49.8999 83.2765 43.9287 85.6678 37.2771C87.7641 31.4484 92.9021 28.0175 98.6689 28.4806C104.581 28.9581 108.977 34.6905 107.641 40.1878C106.788 43.69 103.956 46.0094 100.371 46.1412C100.016 46.1555 99.6602 46.1412 99.3049 46.1483C96.9065 46.1947 95.3644 47.3561 94.9345 49.4403C94.5152 51.464 95.5989 53.5019 97.642 54.4175C99.7597 55.3687 101.977 55.2797 104.176 54.8201C112.15 53.1491 117.899 45.393 117.234 37.2628C116.502 28.3061 109.606 20.8314 100.641 19.1569C93.634 17.8494 86.9718 19.1391 80.4624 21.658C73.6651 24.2908 67.5856 28.2241 61.6411 32.3605C52.8576 38.4706 44.1416 44.6734 35.3937 50.8369C35.1911 50.9794 34.9673 51.0934 34.5693 51.3321L34.5622 51.3393Z" fill="#E3EEF7"/>
<path d="M85.6072 87.9395H64.7002C72.94 78.4554 76.3404 67.2185 78.5541 55.3331C78.7993 55.5326 78.9663 55.6003 79.0231 55.725C82.8144 63.9479 89.2883 69.1851 97.5494 72.4094C105.029 75.3273 112.778 76.1432 120.709 75.0886C125.804 74.4117 130.864 73.4675 135.959 72.7835C141.684 72.0175 147.035 73.1718 151.743 76.6063C156.515 80.0871 161.194 83.6926 165.913 87.2483C166.119 87.405 166.297 87.6045 166.794 88.0713C165.97 88.0713 165.472 88.0713 164.978 88.0713C147.038 88.0713 129.095 88.1033 111.155 88.0463C102.25 88.0178 95.0196 84.0917 88.7944 77.9958C87.8741 77.0944 87.0498 76.0897 86.1011 75.224C84.4915 73.7526 82.3276 73.6101 80.718 74.7822C79.1297 75.9365 78.3622 78.2274 79.4495 80.0266C80.8175 82.2889 82.5976 84.3054 84.2179 86.4146C84.5945 86.9027 85.0493 87.3267 85.6107 87.9359L85.6072 87.9395Z" fill="#A6CBD9"/>
<path d="M77.9638 33.3937C77.3349 34.4946 76.8659 35.3283 76.3862 36.1548C72.467 42.949 70.6194 50.445 68.9032 58.0016C67.0697 66.0819 64.5114 73.9022 59.1532 80.4078C57.199 82.7806 54.8219 84.8577 52.4128 86.7815C51.4037 87.5867 49.819 87.9501 48.4759 87.9964C44.2263 88.1461 39.966 88.0534 35.5742 87.7898C36.2529 87.2839 36.9174 86.7566 37.6138 86.2721C46.1983 80.2688 53.6884 73.0934 60.0522 64.7815C62.6922 61.3328 65.0799 57.6703 67.3327 53.9543C69.1199 51.0079 66.9027 47.5236 63.5201 47.6304C61.8501 47.6839 60.7699 48.685 59.839 49.9534C57.4726 53.1777 55.1559 56.4411 52.69 59.587C46.3333 67.6959 38.7188 74.49 30.3937 80.479C26.8689 83.0157 23.1239 85.2495 19.457 87.576C18.9986 87.8682 18.3804 88.0356 17.8367 88.0392C12.1125 88.0712 6.38478 88.0606 0.212891 88.0606C1.01591 87.4406 1.49915 87.0487 2.00015 86.6889C10.7907 80.3543 19.56 73.9913 28.3755 67.6994C42.4319 57.6632 56.5097 47.6483 70.6158 37.6832C72.6767 36.2261 74.9507 35.0789 77.1288 33.7892C77.3029 33.6858 77.4948 33.611 77.9674 33.3866L77.9638 33.3937Z" fill="#A6CBD9"/>
</g>
<path d="M200.8 87.84C195.76 87.84 192.88 85.04 190.88 81.12C187.04 73.6 176.64 54.8 171.6 44.24L171.12 44.4C171.52 47.52 171.84 51.2 171.84 54V81.28C171.84 85.52 169.92 88 166.08 87.92C162.16 87.84 160 85.6 160 81.28V36C160 30.32 162.72 26.88 167.84 26.88C173.04 26.88 175.2 29.52 178.24 35.28C183.44 45.12 192.88 62.16 197.28 70.64L197.76 70.48C197.28 67.68 197.12 64.32 197.12 61.52V33.52C197.12 29.28 199.12 26.88 203.12 26.88C206.96 26.88 208.88 29.2 208.88 33.52V78.96C208.88 84.8 206.16 87.84 200.8 87.84Z" fill="#A6CBD9"/>
<path d="M251.228 76.24C253.387 74.64 255.708 74.8 257.228 76.56C258.747 78.24 258.827 80.56 257.147 82.4C254.588 85.28 248.347 87.92 240.427 87.92C227.868 87.92 218.188 81.6 218.188 66.88C218.188 52.72 226.507 43.84 239.868 43.84C252.988 43.84 259.548 53.6 259.548 63.04C259.548 67.6 257.228 70 252.348 70H232.028C232.828 76.64 235.787 79.12 241.467 79.28C245.387 79.36 248.588 78.24 251.228 76.24ZM240.028 52.24C234.988 52.24 232.748 55.68 232.028 61.2H246.588C247.068 61.2 247.308 60.96 247.308 60.48C247.308 54.96 244.508 52.24 240.028 52.24Z" fill="#A6CBD9"/>
<path d="M325.379 44.24C329.059 45.04 330.659 47.76 329.619 51.52C326.979 61.44 324.019 72.64 321.219 81.04C319.699 85.6 317.139 87.92 312.259 87.92C307.539 87.92 305.219 85.44 303.779 80.8C301.379 73.2 299.379 66.08 297.779 58H297.379C295.619 66.24 293.459 73.28 290.659 80.96C288.979 85.6 286.819 87.92 282.259 87.92C277.539 87.92 274.259 85.6 272.899 81.04C269.939 71.04 267.219 61.52 264.499 51.76C263.459 48 265.299 45.2 269.219 44.24C272.659 43.36 276.099 44.96 276.979 48.8C279.219 58.72 282.179 70.16 283.379 75.2H283.699C284.899 70.24 288.019 58.56 289.939 50.48C290.979 46.08 293.379 43.92 297.619 43.92C301.859 43.92 304.179 46.16 305.299 50.56C307.379 58.88 310.739 70.08 311.779 75.36H312.099C313.219 70.16 316.099 58.48 318.099 48.72C318.899 44.96 321.619 43.44 325.379 44.24Z" fill="#A6CBD9"/>
<path d="M335.384 76.8C336.744 75.12 338.984 74.8 341.064 76.08C343.464 77.52 346.904 78.96 350.424 78.96C353.944 78.96 355.624 78.08 355.624 76C355.624 74 354.744 72.64 347.864 69.6C339.704 66 335.464 62.64 335.464 56.08C335.464 48.88 342.424 43.92 352.664 43.92C359.544 43.92 364.264 46.08 366.584 48.08C368.424 49.68 368.744 52.08 367.384 53.92C366.024 55.76 363.064 56.24 360.824 54.64C358.904 53.28 356.344 52.8 353.384 52.8C350.344 52.8 348.824 53.92 348.824 55.6C348.824 57.52 350.424 58.48 356.344 61.2C365.704 65.44 369.384 68.96 369.384 75.28C369.384 83.92 361.224 87.92 352.664 87.92C346.584 87.92 339.464 86.4 336.024 82.96C334.104 81.04 333.784 78.72 335.384 76.8Z" fill="#A6CBD9"/>
<path d="M446.423 27.36C450.503 28 452.263 30.88 451.543 35.04C449.543 46 444.983 67.44 441.703 80.48C440.423 85.44 437.703 87.92 432.423 87.92C427.062 87.92 423.623 85.44 422.423 80.48C419.303 67.92 415.302 49.12 414.182 42.8H413.702C412.663 49.2 408.342 68.08 405.462 80.48C404.342 85.44 401.223 88 395.863 88C390.503 88 386.982 85.52 385.702 80.48C383.062 70.32 377.702 44.64 375.542 35.6C374.503 31.36 376.342 28.4 380.583 27.44C384.903 26.48 387.942 28.32 388.742 32.32C391.142 44.96 394.023 57.84 396.103 69.6C396.343 70.96 396.503 72.96 396.663 74.32H397.143C399.702 62.96 402.423 49.84 405.943 32.72C406.743 28.88 409.542 26.8 413.783 26.8C417.943 26.8 420.743 28.72 421.703 32.64C425.783 49.44 428.982 62.64 431.462 74.32H431.943C432.103 73.12 432.103 71.04 432.423 69.68C434.583 59.68 437.303 44 438.983 32.24C439.543 28.32 442.103 26.64 446.423 27.36Z" fill="#A6CBD9"/>
<path d="M488.401 49.2C490.801 51.76 492.001 55.36 492.001 60V81.28C492.001 85.6 490.321 87.92 486.161 87.92C481.921 87.92 480.001 85.6 480.001 81.28V81.04C477.361 85.68 472.401 87.92 466.081 87.92C457.601 87.92 452.401 82.96 452.401 75.04C452.401 65.52 461.281 59.6 474.721 59.6C476.321 59.6 478.001 59.68 479.041 59.84V59.12C479.041 55.12 476.801 52.72 472.561 52.56C469.121 52.4 465.441 53.92 462.401 57.2C460.481 59.28 457.681 59.6 455.681 57.84C453.601 56.16 453.361 53.52 455.201 51.2C458.081 47.68 464.401 43.92 472.801 43.92C480.241 43.92 484.961 45.6 488.401 49.2ZM479.201 72.08V68C478.161 67.84 476.401 67.68 474.881 67.76C467.201 68.16 464.561 71.12 464.721 74.24C464.881 76.96 466.561 78.56 469.841 78.56C473.601 78.56 477.361 75.92 479.201 72.08Z" fill="#A6CBD9"/>
<path d="M518.026 87.84C513.226 87.84 510.346 85.76 508.346 80.96C504.746 72.32 500.586 61.84 497.466 52.32C496.186 48.4 497.626 45.36 501.466 44.24C505.386 43.12 508.026 44.64 509.466 48.72C513.626 60.4 516.586 69.68 518.426 75.2H518.746C520.586 69.68 523.146 60.56 526.506 48.32C527.546 44.56 530.106 43.2 533.946 44.08C537.626 44.96 539.146 47.84 537.866 51.68C534.586 61.52 530.106 74.56 527.546 80.96C525.546 85.92 522.746 87.84 518.026 87.84Z" fill="#A6CBD9"/>
<path d="M574.587 76.24C576.747 74.64 579.067 74.8 580.587 76.56C582.107 78.24 582.187 80.56 580.507 82.4C577.947 85.28 571.707 87.92 563.787 87.92C551.227 87.92 541.547 81.6 541.547 66.88C541.547 52.72 549.867 43.84 563.227 43.84C576.347 43.84 582.907 53.6 582.907 63.04C582.907 67.6 580.587 70 575.707 70H555.387C556.187 76.64 559.147 79.12 564.827 79.28C568.747 79.36 571.947 78.24 574.587 76.24ZM563.387 52.24C558.347 52.24 556.107 55.68 555.387 61.2H569.947C570.427 61.2 570.667 60.96 570.667 60.48C570.667 54.96 567.867 52.24 563.387 52.24Z" fill="#A6CBD9"/>
<defs>
<clipPath id="clip0_4028_2201">
<rect width="167" height="88" fill="white"/>
</clipPath>
</defs>
</svg>
