<svg width="583" height="88" viewBox="0 0 583 88" fill="none" xmlns="http://www.w3.org/2000/svg">
<g clip-path="url(#clip0_4438_9132)">
<path d="M34.5671 51.3393C34.0945 41.6913 36.1912 32.9091 40.9212 24.8003C46.9911 14.3971 55.5094 6.60178 66.9916 2.94283C86.7505 -3.35255 103.922 1.58899 117.931 16.7556C127.377 26.9807 131.18 39.4219 130.145 53.2703C129.9 56.5658 128.919 59.8044 128.262 63.0679C128.059 64.0726 127.533 64.5179 126.393 64.7067C121.076 65.576 115.753 66.2244 110.369 65.6651C102.025 64.7958 94.5048 62.113 89.0995 55.2583C84.8777 49.8999 83.2892 43.9287 85.6808 37.2771C87.7775 31.4484 92.9163 28.0175 98.684 28.4806C104.597 28.9581 108.993 34.6905 107.657 40.1878C106.804 43.69 103.972 46.0094 100.386 46.1412C100.031 46.1555 99.6755 46.1412 99.3202 46.1483C96.9214 46.1947 95.379 47.3561 94.949 49.4403C94.5297 51.464 95.6136 53.5019 97.657 54.4175C99.775 55.3687 101.993 55.2797 104.192 54.8201C112.167 53.1491 117.917 45.393 117.252 37.2628C116.52 28.3061 109.623 20.8314 100.656 19.1569C93.6484 17.8494 86.9851 19.1391 80.4746 21.658C73.6762 24.2908 67.5958 28.2241 61.6503 32.3605C52.8654 38.4706 44.148 44.6734 35.3987 50.8369C35.1961 50.9794 34.9722 51.0934 34.5742 51.3321L34.5671 51.3393Z" fill="#8FB5D6"/>
<path d="M85.6203 87.9395H64.71C72.9511 78.4554 76.3521 67.2185 78.5661 55.3331C78.8113 55.5326 78.9783 55.6003 79.0352 55.725C82.827 63.9479 89.302 69.1851 97.5645 72.4094C105.045 75.3273 112.796 76.1432 120.728 75.0886C125.824 74.4117 130.885 73.4675 135.981 72.7835C141.706 72.0175 147.058 73.1718 151.766 76.6063C156.539 80.0871 161.219 83.6926 165.939 87.2483C166.145 87.405 166.323 87.6045 166.82 88.0713C165.996 88.0713 165.498 88.0713 165.004 88.0713C147.061 88.0713 129.115 88.1033 111.172 88.0463C102.266 88.0178 95.0342 84.0917 88.808 77.9958C87.8876 77.0944 87.0631 76.0897 86.1142 75.224C84.5044 73.7526 82.3401 73.6101 80.7303 74.7822C79.1418 75.9365 78.3741 78.2274 79.4616 80.0266C80.8298 82.2889 82.6102 84.3054 84.2308 86.4146C84.6075 86.9027 85.0623 87.3267 85.6238 87.9359L85.6203 87.9395Z" fill="#003C70"/>
<path d="M77.9762 33.3937C77.3472 34.4946 76.8781 35.3283 76.3984 36.1548C72.4786 42.949 70.6306 50.445 68.9142 58.0016C67.0804 66.082 64.5217 73.9022 59.1626 80.4078C57.2081 82.7806 54.8306 84.8577 52.4212 86.7816C51.4119 87.5868 49.8269 87.9501 48.4836 87.9965C44.2333 88.1461 39.9723 88.0535 35.5799 87.7898C36.2587 87.2839 36.9232 86.7566 37.6198 86.2721C46.2056 80.2689 53.697 73.0935 60.0618 64.7816C62.7022 61.3328 65.0903 57.6703 67.3434 53.9544C69.1309 51.008 66.9134 47.5236 63.5302 47.6305C61.86 47.6839 60.7796 48.6851 59.8485 49.9534C57.4817 53.1777 55.1647 56.4412 52.6984 59.5871C46.3407 67.6959 38.725 74.4901 30.3985 80.4791C26.8732 83.0157 23.1275 85.2496 19.4601 87.5761C19.0016 87.8682 18.3833 88.0357 17.8395 88.0392C12.1144 88.0713 6.38577 88.0606 0.212891 88.0606C1.01604 87.4407 1.49935 87.0488 2.00043 86.6889C10.7924 80.3544 19.5631 73.9913 28.38 67.6995C42.4387 57.6632 56.5187 47.6483 70.6271 37.6833C72.6883 36.2261 74.9627 35.0789 77.1411 33.7892C77.3153 33.6859 77.5072 33.6111 77.9798 33.3866L77.9762 33.3937Z" fill="#003C70"/>
</g>
<path d="M200.832 87.84C195.791 87.84 192.911 85.04 190.91 81.12C187.07 73.6 176.668 54.8 171.627 44.24L171.147 44.4C171.547 47.52 171.867 51.2 171.867 54V81.28C171.867 85.52 169.947 88 166.106 87.92C162.186 87.84 160.025 85.6 160.025 81.28V36C160.025 30.32 162.746 26.88 167.867 26.88C173.067 26.88 175.228 29.52 178.268 35.28C183.469 45.12 192.911 62.16 197.311 70.64L197.791 70.48C197.311 67.68 197.151 64.32 197.151 61.52V33.52C197.151 29.28 199.152 26.88 203.152 26.88C206.993 26.88 208.913 29.2 208.913 33.52V78.96C208.913 84.8 206.193 87.84 200.832 87.84Z" fill="#003C70"/>
<path d="M251.267 76.24C253.428 74.64 255.748 74.8 257.268 76.56C258.789 78.24 258.869 80.56 257.188 82.4C254.628 85.28 248.387 87.92 240.466 87.92C227.904 87.92 218.222 81.6 218.222 66.88C218.222 52.72 226.544 43.84 239.906 43.84C253.028 43.84 259.589 53.6 259.589 63.04C259.589 67.6 257.268 70 252.388 70H232.064C232.865 76.64 235.825 79.12 241.506 79.28C245.427 79.36 248.627 78.24 251.267 76.24ZM240.066 52.24C235.025 52.24 232.785 55.68 232.064 61.2H246.627C247.107 61.2 247.347 60.96 247.347 60.48C247.347 54.96 244.546 52.24 240.066 52.24Z" fill="#003C70"/>
<path d="M325.431 44.24C329.111 45.04 330.711 47.76 329.671 51.52C327.031 61.44 324.07 72.64 321.27 81.04C319.75 85.6 317.189 87.92 312.308 87.92C307.588 87.92 305.267 85.44 303.827 80.8C301.427 73.2 299.426 66.08 297.826 58H297.426C295.666 66.24 293.505 73.28 290.705 80.96C289.025 85.6 286.864 87.92 282.304 87.92C277.583 87.92 274.302 85.6 272.942 81.04C269.982 71.04 267.261 61.52 264.541 51.76C263.501 48 265.341 45.2 269.262 44.24C272.702 43.36 276.143 44.96 277.023 48.8C279.263 58.72 282.224 70.16 283.424 75.2H283.744C284.944 70.24 288.065 58.56 289.985 50.48C291.025 46.08 293.425 43.92 297.666 43.92C301.907 43.92 304.227 46.16 305.347 50.56C307.428 58.88 310.788 70.08 311.828 75.36H312.148C313.269 70.16 316.149 58.48 318.149 48.72C318.95 44.96 321.67 43.44 325.431 44.24Z" fill="#003C70"/>
<path d="M335.438 76.8C336.798 75.12 339.038 74.8 341.119 76.08C343.519 77.52 346.96 78.96 350.48 78.96C354.001 78.96 355.681 78.08 355.681 76C355.681 74 354.801 72.64 347.92 69.6C339.758 66 335.518 62.64 335.518 56.08C335.518 48.88 342.479 43.92 352.721 43.92C359.602 43.92 364.322 46.08 366.643 48.08C368.483 49.68 368.803 52.08 367.443 53.92C366.083 55.76 363.122 56.24 360.882 54.64C358.962 53.28 356.401 52.8 353.441 52.8C350.4 52.8 348.88 53.92 348.88 55.6C348.88 57.52 350.48 58.48 356.401 61.2C365.763 65.44 369.443 68.96 369.443 75.28C369.443 83.92 361.282 87.92 352.721 87.92C346.64 87.92 339.518 86.4 336.078 82.96C334.158 81.04 333.838 78.72 335.438 76.8Z" fill="#003C70"/>
<path d="M446.494 27.36C450.574 28 452.335 30.88 451.614 35.04C449.614 46 445.053 67.44 441.773 80.48C440.493 85.44 437.772 87.92 432.491 87.92C427.131 87.92 423.69 85.44 422.49 80.48C419.369 67.92 415.369 49.12 414.248 42.8H413.768C412.728 49.2 408.408 68.08 405.527 80.48C404.407 85.44 401.286 88 395.926 88C390.565 88 387.044 85.52 385.764 80.48C383.124 70.32 377.763 44.64 375.602 35.6C374.562 31.36 376.402 28.4 380.643 27.44C384.964 26.48 388.004 28.32 388.804 32.32C391.205 44.96 394.085 57.84 396.166 69.6C396.406 70.96 396.566 72.96 396.726 74.32H397.206C399.766 62.96 402.487 49.84 406.007 32.72C406.807 28.88 409.608 26.8 413.848 26.8C418.009 26.8 420.81 28.72 421.77 32.64C425.85 49.44 429.051 62.64 431.531 74.32H432.011C432.171 73.12 432.171 71.04 432.491 69.68C434.652 59.68 437.372 44 439.052 32.24C439.613 28.32 442.173 26.64 446.494 27.36Z" fill="#003C70"/>
<path d="M488.478 49.2C490.879 51.76 492.079 55.36 492.079 60V81.28C492.079 85.6 490.399 87.92 486.238 87.92C481.997 87.92 480.077 85.6 480.077 81.28V81.04C477.437 85.68 472.476 87.92 466.155 87.92C457.674 87.92 452.473 82.96 452.473 75.04C452.473 65.52 461.354 59.6 474.796 59.6C476.397 59.6 478.077 59.68 479.117 59.84V59.12C479.117 55.12 476.877 52.72 472.636 52.56C469.195 52.4 465.515 53.92 462.474 57.2C460.554 59.28 457.754 59.6 455.753 57.84C453.673 56.16 453.433 53.52 455.273 51.2C458.154 47.68 464.475 43.92 472.876 43.92C480.317 43.92 485.038 45.6 488.478 49.2ZM479.277 72.08V68C478.237 67.84 476.477 67.68 474.956 67.76C467.275 68.16 464.635 71.12 464.795 74.24C464.955 76.96 466.635 78.56 469.916 78.56C473.676 78.56 477.437 75.92 479.277 72.08Z" fill="#003C70"/>
<path d="M518.108 87.84C513.307 87.84 510.427 85.76 508.427 80.96C504.826 72.32 500.665 61.84 497.545 52.32C496.265 48.4 497.705 45.36 501.546 44.24C505.466 43.12 508.107 44.64 509.547 48.72C513.708 60.4 516.668 69.68 518.508 75.2H518.828C520.669 69.68 523.229 60.56 526.59 48.32C527.63 44.56 530.19 43.2 534.031 44.08C537.711 44.96 539.232 47.84 537.951 51.68C534.671 61.52 530.19 74.56 527.63 80.96C525.629 85.92 522.829 87.84 518.108 87.84Z" fill="#003C70"/>
<path d="M574.678 76.24C576.839 74.64 579.159 74.8 580.679 76.56C582.2 78.24 582.28 80.56 580.599 82.4C578.039 85.28 571.798 87.92 563.877 87.92C551.315 87.92 541.633 81.6 541.633 66.88C541.633 52.72 549.955 43.84 563.317 43.84C576.439 43.84 583 53.6 583 63.04C583 67.6 580.679 70 575.799 70H555.475C556.276 76.64 559.236 79.12 564.917 79.28C568.838 79.36 572.038 78.24 574.678 76.24ZM563.477 52.24C558.436 52.24 556.196 55.68 555.475 61.2H570.038C570.518 61.2 570.758 60.96 570.758 60.48C570.758 54.96 567.957 52.24 563.477 52.24Z" fill="#003C70"/>
<defs>
<clipPath id="clip0_4438_9132">
<rect width="167.027" height="88" fill="white"/>
</clipPath>
</defs>
</svg>
