<svg width="198" height="30" viewBox="0 0 198 30" fill="none" xmlns="http://www.w3.org/2000/svg">
<g clip-path="url(#clip0_4451_55)">
<path d="M11.7399 17.502C11.5794 14.213 12.2915 11.219 13.8979 8.45467C15.9594 4.90811 18.8524 2.25062 22.752 1.00325C29.4626 -1.1429 35.2945 0.541715 40.0522 5.71216C43.2603 9.19799 44.5517 13.4393 44.2005 18.1603C44.1172 19.2838 43.7841 20.3879 43.5608 21.5004C43.492 21.8429 43.3134 21.9947 42.9259 22.0591C41.1204 22.3555 39.3124 22.5765 37.4839 22.3858C34.65 22.0895 32.0961 21.1749 30.2603 18.8381C28.8265 17.0113 28.287 14.9757 29.0993 12.7081C29.8114 10.7211 31.5566 9.55143 33.5155 9.70932C35.5238 9.87208 37.0168 11.8263 36.563 13.7004C36.2733 14.8943 35.3114 15.685 34.0936 15.73C33.9729 15.7348 33.8522 15.73 33.7315 15.7324C32.9168 15.7482 32.393 16.1441 32.247 16.8547C32.1046 17.5445 32.4727 18.2393 33.1667 18.5514C33.886 18.8757 34.6391 18.8454 35.3862 18.6887C38.0946 18.119 40.0474 15.4749 39.8217 12.7033C39.5731 9.64981 37.2304 7.10163 34.1853 6.53078C31.8052 6.08503 29.5422 6.5247 27.3311 7.38341C25.0222 8.28098 22.9572 9.62188 20.938 11.032C17.9544 13.115 14.9938 15.2296 12.0223 17.3308C11.9535 17.3794 11.8775 17.4182 11.7423 17.4996L11.7399 17.502Z" fill="#8FB5D6"/>
<path d="M29.0787 29.9793H21.9771C24.7759 26.7461 25.931 22.9154 26.6829 18.8636C26.7662 18.9316 26.8229 18.9546 26.8422 18.9972C28.13 21.8004 30.329 23.5858 33.1352 24.685C35.6758 25.6797 38.3081 25.9579 41.002 25.5984C42.7327 25.3676 44.4514 25.0457 46.1822 24.8125C48.1265 24.5514 49.9442 24.9449 51.5434 26.1158C53.1643 27.3024 54.7538 28.5316 56.3567 29.7437C56.4267 29.7972 56.487 29.8652 56.656 30.0243C56.376 30.0243 56.207 30.0243 56.0392 30.0243C49.9454 30.0243 43.8504 30.0352 37.7565 30.0158C34.732 30.0061 32.2758 28.6676 30.1613 26.5895C29.8487 26.2822 29.5687 25.9397 29.2464 25.6445C28.6997 25.1429 27.9647 25.0943 27.4179 25.4939C26.8784 25.8874 26.6177 26.6684 26.987 27.2818C27.4517 28.053 28.0564 28.7405 28.6068 29.4595C28.7347 29.6259 28.8892 29.7704 29.0799 29.9781L29.0787 29.9793Z" fill="#003C70"/>
<path d="M26.4827 11.3842C26.2691 11.7595 26.1098 12.0437 25.9468 12.3255C24.6156 14.6417 23.988 17.1972 23.405 19.7733C22.7822 22.5279 21.9132 25.1939 20.0932 27.4117C19.4294 28.2206 18.6219 28.9287 17.8036 29.5846C17.4609 29.8591 16.9226 29.983 16.4663 29.9988C15.0228 30.0498 13.5757 30.0182 12.0839 29.9283C12.3145 29.7559 12.5402 29.5761 12.7767 29.4109C15.6927 27.3644 18.2369 24.9182 20.3985 22.0846C21.2953 20.9089 22.1064 19.6603 22.8716 18.3935C23.4786 17.3891 22.7255 16.2012 21.5765 16.2376C21.0093 16.2559 20.6423 16.5972 20.3261 17.0295C19.5223 18.1287 18.7354 19.2413 17.8978 20.3138C15.7386 23.0781 13.1521 25.3943 10.3242 27.436C9.12695 28.3008 7.85484 29.0623 6.60928 29.8555C6.45359 29.9551 6.24358 30.0121 6.05892 30.0133C4.11454 30.0243 2.16896 30.0206 0.0725098 30.0206C0.345278 29.8093 0.509421 29.6757 0.679599 29.553C3.66556 27.3935 6.64428 25.2243 9.63869 23.0793C14.4133 19.6579 19.1952 16.2437 23.9868 12.8466C24.6868 12.3498 25.4592 11.9587 26.1991 11.519C26.2582 11.4838 26.3234 11.4583 26.4839 11.3818L26.4827 11.3842Z" fill="#003C70"/>
</g>
<path d="M68.2072 29.9454C66.4952 29.9454 65.517 28.9909 64.8376 27.6545C63.5333 25.0909 60.0006 18.6818 58.2886 15.0818L58.1256 15.1364C58.2615 16.2 58.3702 17.4545 58.3702 18.4091V27.7091C58.3702 29.1545 57.718 30 56.4136 29.9727C55.0821 29.9454 54.3484 29.1818 54.3484 27.7091V12.2727C54.3484 10.3364 55.2723 9.16362 57.0115 9.16362C58.7778 9.16362 59.5115 10.0636 60.5441 12.0273C62.3104 15.3818 65.517 21.1909 67.0115 24.0818L67.1746 24.0273C67.0115 23.0727 66.9572 21.9273 66.9572 20.9727V11.4273C66.9572 9.98181 67.6365 9.16362 68.9953 9.16362C70.2996 9.16362 70.9518 9.95453 70.9518 11.4273V26.9182C70.9518 28.9091 70.0279 29.9454 68.2072 29.9454Z" fill="#003C70"/>
<path d="M85.3363 25.9909C86.07 25.4454 86.858 25.5 87.3743 26.1C87.8906 26.6727 87.9178 27.4636 87.3472 28.0909C86.4776 29.0727 84.358 29.9727 81.6678 29.9727C77.4014 29.9727 74.1133 27.8182 74.1133 22.8C74.1133 17.9727 76.9395 14.9454 81.4775 14.9454C85.9341 14.9454 88.1624 18.2727 88.1624 21.4909C88.1624 23.0454 87.3743 23.8636 85.7167 23.8636H78.8145C79.0862 26.1273 80.0917 26.9727 82.021 27.0273C83.3526 27.0545 84.4395 26.6727 85.3363 25.9909ZM81.5319 17.8091C79.8199 17.8091 79.059 18.9818 78.8145 20.8636H83.7602C83.9232 20.8636 84.0047 20.7818 84.0047 20.6182C84.0047 18.7364 83.0536 17.8091 81.5319 17.8091Z" fill="#003C70"/>
<path d="M110.524 15.0818C111.774 15.3545 112.317 16.2818 111.964 17.5636C111.067 20.9454 110.062 24.7636 109.111 27.6273C108.594 29.1818 107.725 29.9727 106.067 29.9727C104.464 29.9727 103.676 29.1273 103.187 27.5454C102.371 24.9545 101.692 22.5273 101.149 19.7727H101.013C100.415 22.5818 99.6812 24.9818 98.7302 27.6C98.1595 29.1818 97.4258 29.9727 95.8769 29.9727C94.2736 29.9727 93.1595 29.1818 92.6975 27.6273C91.692 24.2182 90.7681 20.9727 89.8442 17.6454C89.4909 16.3636 90.1159 15.4091 91.4475 15.0818C92.616 14.7818 93.7845 15.3273 94.0834 16.6364C94.8442 20.0182 95.8497 23.9182 96.2573 25.6364H96.366C96.7736 23.9454 97.8334 19.9636 98.4856 17.2091C98.8388 15.7091 99.6541 14.9727 101.094 14.9727C102.535 14.9727 103.323 15.7364 103.703 17.2364C104.41 20.0727 105.551 23.8909 105.904 25.6909H106.013C106.393 23.9182 107.372 19.9364 108.051 16.6091C108.323 15.3273 109.247 14.8091 110.524 15.0818Z" fill="#003C70"/>
<path d="M113.922 26.1818C114.384 25.6091 115.145 25.5 115.852 25.9364C116.667 26.4273 117.835 26.9182 119.031 26.9182C120.227 26.9182 120.797 26.6182 120.797 25.9091C120.797 25.2273 120.499 24.7636 118.162 23.7273C115.39 22.5 113.95 21.3545 113.95 19.1182C113.95 16.6636 116.314 14.9727 119.792 14.9727C122.129 14.9727 123.732 15.7091 124.52 16.3909C125.145 16.9364 125.254 17.7545 124.792 18.3818C124.33 19.0091 123.325 19.1727 122.564 18.6273C121.912 18.1636 121.042 18 120.037 18C119.004 18 118.488 18.3818 118.488 18.9545C118.488 19.6091 119.031 19.9364 121.042 20.8636C124.221 22.3091 125.471 23.5091 125.471 25.6636C125.471 28.6091 122.7 29.9727 119.792 29.9727C117.727 29.9727 115.308 29.4545 114.14 28.2818C113.488 27.6273 113.379 26.8364 113.922 26.1818Z" fill="#003C70"/>
<path d="M151.64 9.32726C153.025 9.54544 153.623 10.5273 153.379 11.9454C152.699 15.6818 151.15 22.9909 150.036 27.4364C149.601 29.1273 148.678 29.9727 146.884 29.9727C145.063 29.9727 143.895 29.1273 143.487 27.4364C142.427 23.1545 141.069 16.7454 140.688 14.5909H140.525C140.172 16.7727 138.705 23.2091 137.726 27.4364C137.346 29.1273 136.286 30 134.465 30C132.645 30 131.449 29.1545 131.014 27.4364C130.118 23.9727 128.297 15.2182 127.563 12.1364C127.21 10.6909 127.835 9.68181 129.275 9.35453C130.743 9.02726 131.775 9.65453 132.047 11.0182C132.862 15.3273 133.84 19.7182 134.547 23.7273C134.628 24.1909 134.683 24.8727 134.737 25.3364H134.9C135.77 21.4636 136.694 16.9909 137.889 11.1545C138.161 9.84544 139.112 9.13635 140.552 9.13635C141.965 9.13635 142.917 9.7909 143.243 11.1273C144.629 16.8545 145.716 21.3545 146.558 25.3364H146.721C146.775 24.9273 146.775 24.2182 146.884 23.7545C147.618 20.3454 148.542 15 149.112 10.9909C149.303 9.65453 150.172 9.08181 151.64 9.32726Z" fill="#003C70"/>
<path d="M165.899 16.7727C166.714 17.6454 167.121 18.8727 167.121 20.4545V27.7091C167.121 29.1818 166.551 29.9727 165.138 29.9727C163.697 29.9727 163.045 29.1818 163.045 27.7091V27.6273C162.148 29.2091 160.464 29.9727 158.317 29.9727C155.436 29.9727 153.67 28.2818 153.67 25.5818C153.67 22.3364 156.686 20.3182 161.252 20.3182C161.795 20.3182 162.366 20.3454 162.719 20.4V20.1545C162.719 18.7909 161.958 17.9727 160.518 17.9182C159.35 17.8636 158.1 18.3818 157.067 19.5C156.415 20.2091 155.464 20.3182 154.784 19.7182C154.078 19.1454 153.996 18.2454 154.621 17.4545C155.599 16.2545 157.746 14.9727 160.6 14.9727C163.127 14.9727 164.73 15.5454 165.899 16.7727ZM162.773 24.5727V23.1818C162.42 23.1273 161.822 23.0727 161.306 23.1C158.697 23.2364 157.801 24.2454 157.855 25.3091C157.909 26.2364 158.48 26.7818 159.594 26.7818C160.871 26.7818 162.148 25.8818 162.773 24.5727Z" fill="#003C70"/>
<path d="M175.961 29.9454C174.331 29.9454 173.353 29.2364 172.673 27.6C171.451 24.6545 170.037 21.0818 168.978 17.8364C168.543 16.5 169.032 15.4636 170.336 15.0818C171.668 14.7 172.565 15.2182 173.054 16.6091C174.467 20.5909 175.472 23.7545 176.097 25.6364H176.206C176.831 23.7545 177.701 20.6454 178.842 16.4727C179.195 15.1909 180.065 14.7273 181.369 15.0273C182.619 15.3273 183.135 16.3091 182.701 17.6182C181.586 20.9727 180.065 25.4182 179.195 27.6C178.516 29.2909 177.565 29.9454 175.961 29.9454Z" fill="#003C70"/>
<path d="M195.174 25.9909C195.908 25.4454 196.696 25.5 197.212 26.1C197.728 26.6727 197.756 27.4636 197.185 28.0909C196.315 29.0727 194.196 29.9727 191.505 29.9727C187.239 29.9727 183.951 27.8182 183.951 22.8C183.951 17.9727 186.777 14.9454 191.315 14.9454C195.772 14.9454 198 18.2727 198 21.4909C198 23.0454 197.212 23.8636 195.554 23.8636H188.652C188.924 26.1273 189.929 26.9727 191.859 27.0273C193.19 27.0545 194.277 26.6727 195.174 25.9909ZM191.37 17.8091C189.658 17.8091 188.897 18.9818 188.652 20.8636H193.598C193.761 20.8636 193.842 20.7818 193.842 20.6182C193.842 18.7364 192.891 17.8091 191.37 17.8091Z" fill="#003C70"/>
<defs>
<clipPath id="clip0_4451_55">
<rect width="56.726" height="30" fill="white"/>
</clipPath>
</defs>
</svg>
