<svg width="32" height="32" viewBox="0 0 32 32" fill="none" xmlns="http://www.w3.org/2000/svg">
<path d="M0 2C0 0.895431 0.895431 0 2 0H30C31.1046 0 32 0.895431 32 2V30C32 31.1046 31.1046 32 30 32H2C0.895431 32 0 31.1046 0 30V2Z" fill="#003C70"/>
<g clip-path="url(#clip0_5281_10843)">
<path d="M7.79461 18.5847C7.71538 16.9714 8.06687 15.5029 8.85981 14.147C9.87734 12.4074 11.3053 11.1039 13.2302 10.4921C16.5425 9.43939 19.4212 10.2657 21.7696 12.8018C23.3531 14.5116 23.9905 16.5919 23.8172 18.9076C23.7761 19.4586 23.6116 20.0002 23.5014 20.5459C23.4675 20.7139 23.3793 20.7883 23.1881 20.8199C22.2968 20.9653 21.4044 21.0737 20.5018 20.9802C19.103 20.8348 17.8424 20.3862 16.9363 19.24C16.2286 18.344 15.9623 17.3455 16.3632 16.2333C16.7147 15.2586 17.5761 14.6849 18.543 14.7624C19.5344 14.8422 20.2713 15.8007 20.0473 16.72C19.9043 17.3056 19.4295 17.6934 18.8284 17.7155C18.7688 17.7179 18.7093 17.7155 18.6497 17.7167C18.2475 17.7244 17.989 17.9186 17.9169 18.2671C17.8466 18.6055 18.0283 18.9463 18.3709 19.0994C18.7259 19.2584 19.0977 19.2436 19.4664 19.1667C20.8033 18.8873 21.7672 17.5904 21.6558 16.2309C21.5331 14.7332 20.3767 13.4833 18.8737 13.2033C17.6989 12.9847 16.5818 13.2003 15.4904 13.6215C14.3508 14.0618 13.3315 14.7195 12.3348 15.4111C10.8621 16.4328 9.40074 17.47 7.93402 18.5007C7.90006 18.5245 7.86253 18.5436 7.79581 18.5835L7.79461 18.5847Z" fill="white"/>
<path d="M16.3535 24.7048H12.8481C14.2297 23.1189 14.7998 21.2399 15.171 19.2525C15.2121 19.2859 15.2401 19.2972 15.2496 19.318C15.8853 20.693 16.9707 21.5688 18.3558 22.1079C19.6098 22.5958 20.9092 22.7322 22.2389 22.5559C23.0932 22.4427 23.9415 22.2848 24.7958 22.1705C25.7555 22.0424 26.6527 22.2354 27.4421 22.8097C28.2422 23.3917 29.0268 23.9946 29.8179 24.5892C29.8525 24.6154 29.8823 24.6488 29.9657 24.7268C29.8275 24.7268 29.7441 24.7268 29.6613 24.7268C26.6533 24.7268 23.6448 24.7322 20.6369 24.7226C19.144 24.7179 17.9316 24.0614 16.8879 23.042C16.7336 22.8913 16.5954 22.7233 16.4363 22.5785C16.1664 22.3325 15.8036 22.3087 15.5338 22.5047C15.2675 22.6977 15.1388 23.0808 15.3211 23.3816C15.5504 23.7599 15.8489 24.0971 16.1206 24.4498C16.1837 24.5314 16.26 24.6023 16.3541 24.7042L16.3535 24.7048Z" fill="#A6CBD9"/>
<path d="M15.0717 15.5839C14.9663 15.768 14.8876 15.9074 14.8072 16.0456C14.1501 17.1817 13.8403 18.4351 13.5526 19.6987C13.2452 21.0498 12.8162 22.3575 11.9179 23.4453C11.5902 23.8421 11.1916 24.1894 10.7877 24.5111C10.6185 24.6458 10.3528 24.7065 10.1276 24.7143C9.41513 24.7393 8.70084 24.7238 7.9645 24.6797C8.07828 24.5951 8.18969 24.507 8.30645 24.4259C9.74577 23.4221 11.0016 22.2223 12.0686 20.8324C12.5112 20.2557 12.9116 19.6433 13.2893 19.0219C13.5889 18.5293 13.2172 17.9466 12.65 17.9645C12.37 17.9734 12.1889 18.1408 12.0328 18.3529C11.6361 18.8921 11.2476 19.4378 10.8342 19.9638C9.76841 21.3197 8.49173 22.4558 7.0959 23.4573C6.50492 23.8814 5.87701 24.255 5.2622 24.644C5.18535 24.6928 5.08169 24.7208 4.99054 24.7214C4.03079 24.7268 3.07045 24.725 2.03564 24.725C2.17028 24.6213 2.2513 24.5558 2.3353 24.4956C3.80918 23.4364 5.27947 22.3724 6.75752 21.3203C9.11428 19.6421 11.4746 17.9675 13.8397 16.3012C14.1853 16.0575 14.5665 15.8657 14.9317 15.65C14.9609 15.6327 14.9931 15.6202 15.0723 15.5827L15.0717 15.5839Z" fill="#A6CBD9"/>
</g>
<defs>
<clipPath id="clip0_5281_10843">
<rect width="28" height="14.7149" fill="white" transform="translate(2 10)"/>
</clipPath>
</defs>
</svg>
