<svg width="327" height="55" viewBox="0 0 327 55" fill="none" xmlns="http://www.w3.org/2000/svg">
<g clip-path="url(#clip0_4701_1480)">
<path fill-rule="evenodd" clip-rule="evenodd" d="M327 33.4917L313.375 35.2727C299.75 37.0537 272.5 40.6156 245.25 41.5061C218 42.3966 190.75 40.6156 163.5 35.2727C136.25 29.9298 109 21.0249 81.75 20.1344C54.5 19.2439 27.25 26.3678 13.625 29.9298L0 33.4917V54.8634H13.625C27.25 54.8634 54.5 54.8634 81.75 54.8634C109 54.8634 136.25 54.8634 163.5 54.8634C190.75 54.8634 218 54.8634 245.25 54.8634C272.5 54.8634 299.75 54.8634 313.375 54.8634H327V33.4917Z" fill="#E3EEF7"/>
</g>
<defs>
<clipPath id="clip0_4701_1480">
<rect width="327" height="54.3833" fill="white" transform="translate(0 0.480225)"/>
</clipPath>
</defs>
</svg>
