<svg width="306" height="40" viewBox="0 0 306 40" fill="none" xmlns="http://www.w3.org/2000/svg">
<g clip-path="url(#clip0_4426_5715)">
<path fill-rule="evenodd" clip-rule="evenodd" d="M0 27.3864L12.75 25.9849C25.5 24.5834 51 21.7803 76.5 18.9773C102 16.1743 127.5 13.3713 153 14.7728C178.5 16.1743 204 21.7803 229.5 25.2841C255 28.7879 280.5 30.1894 293.25 30.8902L306 31.5909V40H293.25C280.5 40 255 40 229.5 40C204 40 178.5 40 153 40C127.5 40 102 40 76.5 40C51 40 25.5 40 12.75 40H0V27.3864Z" fill="#f5f8fd"/>
<path fill-rule="evenodd" clip-rule="evenodd" d="M66.2488 25.3553C66.2613 25.5316 66.129 25.6847 65.9534 25.6972C60.5776 26.081 52.3335 26.9956 41.8657 28.1568C29.8512 29.4896 14.9074 31.1474 -1.99102 32.7007C-2.16633 32.7168 -2.32146 32.5872 -2.33751 32.4112C-2.35356 32.2352 -2.22446 32.0794 -2.04915 32.0633C14.8128 30.5135 29.7583 28.8558 41.7824 27.5222C52.2683 26.3592 60.5324 25.4426 65.9082 25.0588C66.0838 25.0463 66.2363 25.179 66.2488 25.3553Z" fill="#E3EEF7"/>
<path fill-rule="evenodd" clip-rule="evenodd" d="M266.965 0C270.827 0 273.01 3.99286 273.01 7.88175C273.01 11.5037 270.562 14.88 266.965 14.88C262.971 14.88 259.463 11.9031 259.463 7.88175C259.463 3.61839 262.731 0 266.965 0Z" fill="#f5f8fd"/>
<path fill-rule="evenodd" clip-rule="evenodd" d="M184.428 22.8414C184.458 22.6672 184.622 22.5501 184.796 22.5799C200.567 25.2872 211.591 26.8654 220.566 28.1502C221.268 28.2508 221.958 28.3496 222.637 28.447C222.811 28.472 222.932 28.6341 222.908 28.809C222.883 28.984 222.721 29.1055 222.547 29.0805C221.868 28.9831 221.178 28.8844 220.476 28.7838C211.5 27.4989 200.469 25.9196 184.689 23.2107C184.515 23.181 184.398 23.0156 184.428 22.8414Z" fill="#E3EEF7"/>
<path fill-rule="evenodd" clip-rule="evenodd" d="M232.25 29.9539C232.267 29.7779 232.422 29.6488 232.598 29.6653C260.032 32.2621 294.067 34.5549 307.654 35.3767C307.83 35.3873 307.964 35.5389 307.953 35.7153C307.942 35.8917 307.791 36.0261 307.616 36.0155C294.025 35.1935 259.983 32.9002 232.538 30.3025C232.363 30.2859 232.234 30.1298 232.25 29.9539Z" fill="#E3EEF7"/>
</g>
<defs>
<clipPath id="clip0_4426_5715">
<rect width="306" height="40" fill="white"/>
</clipPath>
</defs>
</svg>
