<svg xmlns="http://www.w3.org/2000/svg" xmlns:xlink="http://www.w3.org/1999/xlink" width="40" zoomAndPan="magnify" viewBox="0 0 30 30.000001" height="40" preserveAspectRatio="xMidYMid meet" version="1.0"><defs><clipPath id="8314447da7"><path d="M 0.484375 1 L 29.515625 1 L 29.515625 28 L 0.484375 28 Z M 0.484375 1 " clip-rule="nonzero"/></clipPath></defs><g clip-path="url(#8314447da7)"><path stroke-linecap="butt" transform="matrix(0.644987, 0, 0, 0.644987, -42.894884, -15.720633)" fill="none" stroke-linejoin="miter" d="M 86.896694 35.69284 L 84.528671 31.423131 C 77.309532 34.675378 70.423491 42.469867 70.423491 52.529423 C 70.423491 58.725043 74.469115 63.249117 79.320232 63.249117 C 84.419657 63.249117 87.005708 59.415464 87.005708 55.914908 C 87.005708 51.839002 84.195573 48.671544 80.010653 48.671544 C 78.769106 48.671544 77.527559 49.028867 76.843195 49.579993 C 76.843195 44.619863 80.810087 38.751284 86.896694 35.69284 Z M 108.554111 35.69284 L 106.180031 31.423131 C 98.966949 34.675378 92.074851 42.469867 92.074851 52.529423 C 92.074851 58.725043 96.156814 63.249117 101.001874 63.249117 C 106.071018 63.249117 108.663125 59.415464 108.663125 55.914908 C 108.663125 51.839002 105.85299 48.671544 101.552999 48.671544 C 100.311453 48.671544 99.184976 49.028867 98.524837 49.579993 C 98.524837 44.619863 102.461448 38.751284 108.554111 35.69284 Z M 108.554111 35.69284 " stroke="#003c70" stroke-width="0.775851" stroke-opacity="1" stroke-miterlimit="4"/></g></svg>