<svg xmlns="http://www.w3.org/2000/svg" width="1em" height="1em" viewBox="0 0 16 16"><path fill="#e36d63 " fill-rule="evenodd" d="M13.037.057A.75.75 0 0 1 13.5.75V2.5h1.75a.75.75 0 0 1 .53 1.28l-3 3a.75.75 0 0 1-.53.22h-.377a4 4 0 1 1-4.797-2.892a.75.75 0 0 1 .347 1.46A2.5 2.5 0 1 0 10.29 7h-.23L8.53 8.53a.75.75 0 1 1-1.06-1.06L9 5.94V3.75a.75.75 0 0 1 .22-.53l3-3a.75.75 0 0 1 .817-.163M10.5 4.061V5.5h1.44l1.5-1.5H12V2.56zM4.82 2.33a6.5 6.5 0 0 1 3.853-.796a.75.75 0 1 0 .155-1.492a8 8 0 1 0 7.129 7.128a.75.75 0 1 0-1.492.155A6.5 6.5 0 1 1 4.82 2.331Z" clip-rule="evenodd"/></svg>