<svg xmlns="http://www.w3.org/2000/svg" width="1em" height="1em" viewBox="0 0 12 12"><path fill="#a3cfc7" d="M5 2.5a1.5 1.5 0 1 1-3 0a1.5 1.5 0 0 1 3 0M6 7a1.5 1.5 0 1 0 0-3a1.5 1.5 0 0 0 0 3M3.55 5H2a1 1 0 0 0-1 1v.207c0 .596.343 1.086.797 1.407c.272.193.597.336.952.42c.269-.488.736-.85 1.292-.981A2.49 2.49 0 0 1 3.55 5m4.41 2.053a2 2 0 0 1 1.291.98c.355-.083.68-.226.952-.419c.454-.32.797-.811.797-1.407V6a1 1 0 0 0-1-1H8.45a2.51 2.51 0 0 1-.49 2.053M4.5 8a1 1 0 0 0-1 1v.167c0 .587.357 1.058.808 1.358C4.763 10.83 5.363 11 6 11s1.237-.171 1.692-.475c.45-.3.808-.771.808-1.358V9a1 1 0 0 0-1-1zM9 4a1.5 1.5 0 1 0 0-3a1.5 1.5 0 0 0 0 3"/></svg>