<svg width="201" height="120" viewBox="0 0 201 120" fill="none" xmlns="http://www.w3.org/2000/svg">
<g clip-path="url(#clip0_4161_2967)">
<path d="M88.9967 64.7435C88.4607 63.6428 88.5181 62.4338 88.3649 61.263C88.1479 59.5259 87.2417 58.0624 86.3993 56.5735C86.2462 56.3063 86.0164 56.0581 85.9462 55.7718C85.2442 52.9212 83.3297 50.7578 81.8299 48.3462C79.3219 44.3121 75.6204 41.7351 71.4659 39.7371C67.1964 37.6883 62.6653 37.1919 57.9683 37.8028C56.1176 38.0446 54.2732 38.1655 52.4799 38.7891C51.4844 39.1326 50.5526 39.5081 49.6975 40.1189C48.938 40.6598 48.2041 41.2642 47.317 41.5888C46.615 41.8433 45.8747 42.276 45.1408 41.5633C44.2027 40.6534 43.9219 39.7117 44.4005 38.6363C44.7579 37.8282 45.1536 37.0456 45.3642 36.1866C45.8492 34.2459 45.3323 32.3879 44.8026 30.5681C43.756 26.9603 41.6883 23.9825 38.9888 21.3673C35.8489 18.3194 32.39 15.6979 28.797 13.2291C26.4293 11.6001 23.8 10.493 21.0814 9.58308C20.4049 9.35401 19.6518 9.26493 19.1094 8.71772C18.8796 8.4123 18.7903 8.0687 18.8541 7.69965C19.0711 6.44614 18.618 5.40262 17.9224 4.39091C17.5267 3.81824 17.0161 3.23921 17.2012 2.43748C17.4054 2.27841 17.5841 2.03661 17.8075 1.97935C20.4113 1.28579 23.0023 0.534957 25.7018 0.305891C26.9016 0.204083 28.095 0.458602 29.2246 0.795838C32.2623 1.69938 35.1214 3.01015 37.7826 4.76632C40.0928 6.29343 41.7904 8.38048 43.2901 10.6139C44.7898 12.8473 46.2385 15.1252 47.4766 17.524C49.4422 21.3418 50.5654 25.4078 50.9674 29.6773C51.0057 30.0909 51.0504 30.4854 51.2674 30.8672C51.8864 31.968 51.9758 31.9743 53.2011 31.5671C56.1048 30.6063 58.9256 29.3782 61.9697 28.8883C65.3329 28.3474 68.6898 28.322 71.9956 29.2446C78.4029 31.0326 84.2359 33.8832 88.8308 38.8081C91.7537 41.9451 94.1596 45.4447 94.8425 49.8224C95.0467 51.1459 95.2892 52.4694 95.2701 53.8247C95.2382 55.899 95.2701 57.967 95.2573 60.0413C95.2573 60.6013 95.3722 61.193 94.9382 61.6702C94.6319 62.0266 94.249 62.3638 93.7831 62.3702C92.06 62.4083 90.8028 63.2737 89.6987 64.4763C89.5264 64.6672 89.2648 64.7435 88.9967 64.7435Z" fill="#E3EEF7"/>
<path d="M196.965 108.323C196.722 108.476 196.556 108.794 196.186 108.444C193.806 106.192 190.774 105.53 187.679 105.123C182.459 104.429 178.712 106.841 175.853 110.951C175.381 111.632 175.107 112.427 174.915 113.242C174.832 113.592 174.749 113.948 174.628 114.285C174.462 114.756 174.169 115.081 173.613 115.093C173.084 115.106 172.707 114.903 172.516 114.406C171.565 111.956 169.452 111.034 167.142 110.767C162.133 110.188 157.353 111.021 153.038 113.827C152.707 113.592 152.56 113.191 152.253 112.936C151.941 112.593 151.405 112.421 151.405 111.842C151.296 111.613 151.175 111.403 151.303 111.117C152.796 107.833 155.393 106.083 158.903 105.371C161.488 104.849 163.824 105.727 166.223 106.274C168.112 106.707 169.791 107.655 171.316 108.864C172.452 109.761 172.733 109.672 173.39 108.38C174.137 106.904 174.82 105.396 175.968 104.149C178.215 101.706 181.112 100.554 184.246 99.835C185.828 99.4723 187.43 99.4405 189.038 99.6314C191.534 99.9241 193.518 101.139 195.222 102.915C196.294 104.035 197.552 104.995 198.222 106.453C198.311 106.643 198.426 106.815 198.305 107.025C197.922 107.528 197.686 108.183 196.952 108.317L196.965 108.323Z" fill="#E3EEF7"/>
<path d="M17.1948 2.4248C17.9351 3.2838 18.4201 4.30824 19.0328 5.24359C19.6965 6.26803 19.4859 7.53426 19.103 8.70504C18.3882 8.57778 17.6798 8.45052 16.9651 8.32963C14.4315 7.89695 11.917 8.10056 9.38345 8.43144C7.5391 8.67323 5.68199 8.85775 3.81849 8.92138C2.68891 8.95956 1.59762 9.07409 0.487183 9.41769C0.870092 8.41871 1.75078 8.10692 2.52937 7.74424C4.4503 6.8407 6.42866 6.07714 8.34321 5.16088C10.9278 3.9201 13.621 3.05474 16.4162 2.46298C16.6651 2.41208 16.9268 2.43753 17.1884 2.4248H17.1948Z" fill="#276BA5"/>
<path d="M88.9968 64.7432C89.3159 64.3424 89.6158 63.9224 89.9668 63.547C90.7837 62.6753 91.6006 61.8863 92.9982 62.0517C93.6172 62.1281 94.2873 61.8036 94.9383 61.6636C94.8808 63.9797 94.064 66.1113 93.2726 68.2365C91.8239 72.1497 89.5584 75.6048 87.1844 79.0026C87.0631 79.1744 86.9546 79.3462 86.8142 79.4989C86.5462 79.7916 86.2335 79.9443 85.8506 79.7089C85.4294 79.4544 85.5315 79.1172 85.7229 78.7736C86.4951 77.3546 86.9227 75.8148 87.4652 74.3068C88.4543 71.5452 88.9904 68.7328 88.8819 65.7995C88.8692 65.4432 88.9585 65.0868 88.9968 64.7305V64.7432Z" fill="#276BA5"/>
<path d="M151.417 111.835C151.679 112.465 152.611 112.052 152.84 112.733C152.885 113.083 152.911 113.426 152.815 113.77C152.764 113.891 152.706 114.012 152.655 114.132C151.028 115.494 149.981 117.352 148.526 118.86C148.424 118.968 148.322 119.083 148.131 119.286C148.073 118.02 148.935 117.117 148.999 116.016C149.311 115.666 149.394 115.208 149.528 114.782C150.147 113.795 150.307 112.51 151.424 111.842L151.417 111.835Z" fill="#276BA5"/>
<path d="M196.964 108.323C197.328 107.801 197.22 106.79 198.317 107.031C199.6 109.188 200.104 111.568 200.5 113.986C200.047 114.088 199.919 113.961 199.83 113.751C199.153 112.122 198.4 110.537 197.213 109.201C196.977 108.94 197.054 108.616 196.971 108.323H196.964Z" fill="#276BA5"/>
</g>
<defs>
<clipPath id="clip0_4161_2967">
<rect width="200" height="119" fill="white" transform="translate(0.5 0.286621)"/>
</clipPath>
</defs>
</svg>
