<svg width="1920" height="250" viewBox="0 0 1920 250" fill="none" xmlns="http://www.w3.org/2000/svg">
<g clip-path="url(#clip0_4050_4452)">
<path fill-rule="evenodd" clip-rule="evenodd" d="M0 152.138L80 160.325C160 168.512 320 184.886 480 188.98C640 193.073 800 184.886 960 160.325C1120 135.763 1280 94.8277 1440 90.7342C1600 86.6406 1760 119.389 1840 135.763L1920 152.138V250.383H1840C1760 250.383 1600 250.383 1440 250.383C1280 250.383 1120 250.383 960 250.383C800 250.383 640 250.383 480 250.383C320 250.383 160 250.383 80 250.383H0V152.138Z" fill="url(#paint0_linear_4050_4452)"/>
<path fill-rule="evenodd" clip-rule="evenodd" d="M1301.09 128.396C1301.19 129.497 1300.37 130.466 1299.27 130.56C1247.21 135.037 1218.79 140.087 1192.94 145.374C1188.71 146.24 1184.54 147.113 1180.35 147.991C1158.89 152.484 1136.75 157.12 1101.66 161.682C1100.57 161.824 1099.56 161.052 1099.42 159.957C1099.28 158.861 1100.05 157.858 1101.15 157.715C1136.08 153.175 1158.07 148.569 1179.51 144.079C1183.71 143.2 1187.89 142.325 1192.14 141.455C1218.13 136.14 1246.7 131.066 1298.93 126.575C1300.03 126.481 1301 127.296 1301.09 128.396Z" fill="#002A4E"/>
<path fill-rule="evenodd" clip-rule="evenodd" d="M1365.26 119.331C1514.64 111.677 1660.6 123.997 1892.92 165.969C1894.01 166.166 1894.73 167.206 1894.53 168.293C1894.33 169.38 1893.29 170.102 1892.21 169.905C1660.05 127.963 1514.43 115.693 1365.46 123.326C1364.36 123.382 1363.42 122.534 1363.36 121.431C1363.31 120.327 1364.15 119.387 1365.26 119.331Z" fill="#002A4E"/>
<path fill-rule="evenodd" clip-rule="evenodd" d="M142.006 195.224C142.094 194.123 143.058 193.302 144.159 193.39C264.281 202.968 304.102 204.898 348.863 207.068C360.171 207.617 371.794 208.18 385.106 208.886C386.209 208.945 387.056 209.886 386.997 210.989C386.939 212.092 385.997 212.939 384.894 212.881C371.59 212.175 359.971 211.612 348.664 211.064C303.891 208.893 264.024 206.96 143.841 197.377C142.74 197.289 141.919 196.326 142.006 195.224Z" fill="#002A4E"/>
</g>
<defs>
<linearGradient id="paint0_linear_4050_4452" x1="0" y1="170.383" x2="1920" y2="170.383" gradientUnits="userSpaceOnUse">
<stop stop-color="#001E38"/>
<stop offset="1" stop-color="#003C70"/>
</linearGradient>
<clipPath id="clip0_4050_4452">
<rect width="1920" height="250" fill="white" transform="matrix(-1 0 0 1 1920 0.383301)"/>
</clipPath>
</defs>
</svg>
