<svg width="1920" height="250" viewBox="0 0 1920 250" fill="none" xmlns="http://www.w3.org/2000/svg">
<path fill-rule="evenodd" clip-rule="evenodd" d="M1920 151.754L1840 159.942C1760 168.129 1600 184.503 1440 188.596C1280 192.69 1120 184.503 960 159.942C800 135.38 640 94.4444 480 90.3509C320 86.2573 160 119.006 80 135.38L0 151.754V250H80C160 250 320 250 480 250C640 250 800 250 960 250C1120 250 1280 250 1440 250C1600 250 1760 250 1840 250H1920V151.754Z" fill="#F5F8FD"/>
<path fill-rule="evenodd" clip-rule="evenodd" d="M618.909 128.013C618.815 129.114 619.63 130.083 620.731 130.177C672.79 134.654 701.206 139.703 727.06 144.991C731.293 145.856 735.46 146.729 739.654 147.607C761.109 152.101 783.247 156.737 818.339 161.299C819.435 161.441 820.438 160.669 820.58 159.573C820.723 158.478 819.95 157.474 818.855 157.332C783.924 152.791 761.933 148.186 740.491 143.696C736.291 142.816 732.112 141.941 727.861 141.072C701.87 135.756 673.301 130.683 621.073 126.192C619.973 126.097 619.004 126.913 618.909 128.013Z" fill="#E3EEF7"/>
<path fill-rule="evenodd" clip-rule="evenodd" d="M554.743 118.948C405.359 111.293 259.403 123.614 27.0813 165.586C25.9943 165.782 25.2723 166.823 25.4687 167.91C25.6651 168.997 26.7054 169.719 27.7924 169.522C259.949 127.58 405.574 115.31 554.538 122.942C555.641 122.999 556.581 122.15 556.638 121.047C556.695 119.944 555.846 119.004 554.743 118.948Z" fill="#E3EEF7"/>
<path fill-rule="evenodd" clip-rule="evenodd" d="M1777.99 194.841C1777.91 193.74 1776.94 192.919 1775.84 193.006C1655.72 202.584 1615.9 204.515 1571.14 206.685C1559.83 207.233 1548.21 207.797 1534.89 208.503C1533.79 208.561 1532.94 209.503 1533 210.606C1533.06 211.709 1534 212.556 1535.11 212.497C1548.41 211.792 1560.03 211.228 1571.34 210.68C1616.11 208.509 1655.98 206.576 1776.16 196.994C1777.26 196.906 1778.08 195.942 1777.99 194.841Z" fill="#E3EEF7"/>
</svg>
