<svg width="1920" height="250" viewBox="0 0 1920 250" fill="none" xmlns="http://www.w3.org/2000/svg">
<g clip-path="url(#clip0_4050_4442)">
<path fill-rule="evenodd" clip-rule="evenodd" d="M0 171.165L80 162.405C160 153.646 320 136.127 480 118.608C640 101.089 800 83.5704 960 92.3299C1120 101.089 1280 136.127 1440 158.026C1600 179.924 1760 188.684 1840 193.064L1920 197.443V250H1840C1760 250 1600 250 1440 250C1280 250 1120 250 960 250C800 250 640 250 480 250C320 250 160 250 80 250H0V171.165Z" fill="#E3EEF7"/>
<path fill-rule="evenodd" clip-rule="evenodd" d="M415.675 158.471C415.753 159.573 414.924 160.529 413.822 160.608C380.091 163.006 328.363 168.722 262.683 175.98C187.298 184.31 93.5328 194.672 -12.4964 204.379C-13.5964 204.48 -14.5697 203.67 -14.6705 202.57C-14.7712 201.47 -13.9611 200.497 -12.8611 200.396C92.939 190.709 186.715 180.349 262.16 172.014C327.954 164.745 379.808 159.016 413.538 156.618C414.64 156.539 415.597 157.369 415.675 158.471Z" fill="white"/>
<path fill-rule="evenodd" clip-rule="evenodd" d="M1675.07 0C1699.31 0 1713 24.9554 1713 49.2609C1713 71.8981 1697.64 93 1675.07 93C1650.01 93 1628 74.3944 1628 49.2609C1628 22.615 1648.5 0 1675.07 0Z" fill="#E3EEF7"/>
<path fill-rule="evenodd" clip-rule="evenodd" d="M1157.19 142.759C1157.38 141.67 1158.41 140.938 1159.5 141.124C1258.46 158.045 1327.63 167.909 1383.94 175.939C1388.35 176.568 1392.67 177.185 1396.93 177.793C1398.03 177.95 1398.79 178.963 1398.63 180.056C1398.47 181.15 1397.46 181.91 1396.37 181.753C1392.11 181.145 1387.78 180.527 1383.37 179.899C1327.05 171.868 1257.84 161.997 1158.82 145.067C1157.74 144.881 1157 143.847 1157.19 142.759Z" fill="white"/>
<path fill-rule="evenodd" clip-rule="evenodd" d="M1457.25 187.212C1457.36 186.112 1458.33 185.305 1459.43 185.408C1631.57 201.638 1845.12 215.968 1930.37 221.104C1931.48 221.171 1932.32 222.118 1932.25 223.221C1932.18 224.323 1931.24 225.163 1930.13 225.097C1844.86 219.96 1631.26 205.626 1459.06 189.391C1457.96 189.287 1457.15 188.312 1457.25 187.212Z" fill="white"/>
</g>
<defs>
<clipPath id="clip0_4050_4442">
<rect width="1920" height="250" fill="white"/>
</clipPath>
</defs>
</svg>
