<svg width="1920" height="250" viewBox="0 0 1920 250" fill="none" xmlns="http://www.w3.org/2000/svg">
<g clip-path="url(#clip0_4050_4391)">
<path fill-rule="evenodd" clip-rule="evenodd" d="M0 190.728L107.2 195.667C212.8 200.607 427.2 210.485 640 190.728C852.8 170.97 1067.2 121.577 1280 101.82C1492.8 82.0623 1707.2 91.9409 1812.8 96.8803L1920 101.82V250H1812.8C1707.2 250 1492.8 250 1280 250C1067.2 250 852.8 250 640 250C427.2 250 212.8 250 107.2 250H0V190.728Z" fill="#E3EEF7"/>
<path fill-rule="evenodd" clip-rule="evenodd" d="M1586.5 119C1586.5 117.895 1587.4 117 1588.5 117C1707.52 117 1800.08 117.5 1963.65 130.006C1964.75 130.09 1965.58 131.051 1965.49 132.152C1965.41 133.254 1964.45 134.078 1963.35 133.994C1799.92 121.5 1707.48 121 1588.5 121C1587.4 121 1586.5 120.105 1586.5 119ZM701.485 209.739C701.62 210.836 700.842 211.834 699.745 211.97C558.094 229.488 431.974 230.485 250.939 224.984C249.835 224.95 248.967 224.028 249.001 222.924C249.035 221.82 249.957 220.952 251.061 220.986C432.026 226.485 557.906 225.481 699.255 208C700.351 207.864 701.349 208.643 701.485 209.739ZM131.501 218.327C131.542 217.224 132.47 216.362 133.573 216.402C154.848 217.184 175.61 217.754 194.524 217.977C195.628 217.99 196.513 218.896 196.5 220C196.487 221.104 195.581 221.989 194.477 221.976C175.52 221.753 154.723 221.182 133.427 220.4C132.323 220.359 131.461 219.431 131.501 218.327Z" fill="#003C70"/>
</g>
<defs>
<clipPath id="clip0_4050_4391">
<rect width="1920" height="250" fill="white" transform="matrix(-1 0 0 1 1920 0)"/>
</clipPath>
</defs>
</svg>
