<svg width="1920" height="250" viewBox="0 0 1920 250" fill="none" xmlns="http://www.w3.org/2000/svg">
<g clip-path="url(#clip0_4575_4608)">
<path fill-rule="evenodd" clip-rule="evenodd" d="M1920 191.111L1812.8 196.05C1707.2 200.99 1492.8 210.869 1280 191.111C1067.2 171.354 852.8 121.96 640 102.203C427.2 82.4456 212.8 92.3242 107.2 97.2636L0 102.203V250.383H107.2C212.8 250.383 427.2 250.383 640 250.383C852.8 250.383 1067.2 250.383 1280 250.383C1492.8 250.383 1707.2 250.383 1812.8 250.383H1920V191.111Z" fill="#276BA5"/>
</g>
<g clip-path="url(#clip1_4575_4608)">
<path fill-rule="evenodd" clip-rule="evenodd" d="M0 152.138L80 160.325C160 168.512 320 184.886 480 188.98C640 193.073 800 184.886 960 160.325C1120 135.763 1280 94.8277 1440 90.7342C1600 86.6406 1760 119.389 1840 135.763L1920 152.138V250.383H1840C1760 250.383 1600 250.383 1440 250.383C1280 250.383 1120 250.383 960 250.383C800 250.383 640 250.383 480 250.383C320 250.383 160 250.383 80 250.383H0V152.138Z" fill="#8FB5D6"/>
</g>
<g clip-path="url(#clip2_4575_4608)">
<path fill-rule="evenodd" clip-rule="evenodd" d="M0 171.548L80 162.789C160 154.029 320 136.51 480 118.992C640 101.473 800 83.9537 960 92.7132C1120 101.473 1280 136.51 1440 158.409C1600 180.308 1760 189.067 1840 193.447L1920 197.827V250.383H1840C1760 250.383 1600 250.383 1440 250.383C1280 250.383 1120 250.383 960 250.383C800 250.383 640 250.383 480 250.383C320 250.383 160 250.383 80 250.383H0V171.548Z" fill="url(#paint0_linear_4575_4608)"/>
<path fill-rule="evenodd" clip-rule="evenodd" d="M415.675 158.854C415.753 159.956 414.924 160.913 413.822 160.991C380.091 163.39 328.363 169.106 262.683 176.364C187.298 184.694 93.5328 195.055 -12.4964 204.763C-13.5964 204.863 -14.5697 204.053 -14.6705 202.953C-14.7712 201.853 -13.9611 200.88 -12.8611 200.779C92.939 191.093 186.715 180.732 262.16 172.397C327.954 165.128 379.808 159.4 413.538 157.001C414.64 156.923 415.597 157.752 415.675 158.854Z" fill="#002A4E"/>
<path fill-rule="evenodd" clip-rule="evenodd" d="M1675.07 0.383301C1699.31 0.383301 1713 25.3387 1713 49.6442C1713 72.2814 1697.64 93.3833 1675.07 93.3833C1650.01 93.3833 1628 74.7777 1628 49.6442C1628 22.9983 1648.5 0.383301 1675.07 0.383301Z" fill="#E3EEF7"/>
<path fill-rule="evenodd" clip-rule="evenodd" d="M1157.19 143.142C1157.38 142.053 1158.41 141.322 1159.5 141.508C1258.46 158.428 1327.63 168.292 1383.94 176.322C1388.35 176.951 1392.67 177.568 1396.93 178.177C1398.03 178.333 1398.79 179.346 1398.63 180.44C1398.47 181.533 1397.46 182.293 1396.37 182.137C1392.11 181.528 1387.78 180.911 1383.37 180.282C1327.05 172.250 1257.84 162.381 1158.82 145.45C1157.74 145.264 1157 144.231 1157.19 143.142Z" fill="#002A4E"/>
<path fill-rule="evenodd" clip-rule="evenodd" d="M1457.25 187.595C1457.36 186.495 1458.33 185.688 1459.43 185.792C1631.57 202.021 1845.12 216.351 1930.37 221.487C1931.48 221.554 1932.32 222.501 1932.25 223.604C1932.18 224.707 1931.24 225.547 1930.13 225.48C1844.86 220.343 1631.26 206.01 1459.06 189.774C1457.96 189.67 1457.15 188.695 1457.25 187.595Z" fill="#002A4E"/>
</g>
<defs>
<linearGradient id="paint0_linear_4575_4608" x1="0" y1="170.383" x2="1920" y2="170.383" gradientUnits="userSpaceOnUse">
<stop stop-color="#001E38"/>
<stop offset="1" stop-color="#003C70"/>
</linearGradient>
<clipPath id="clip0_4575_4608">
<rect width="1920" height="250" fill="white" transform="translate(0 0.383301)"/>
</clipPath>
<clipPath id="clip1_4575_4608">
<rect width="1920" height="250" fill="white" transform="matrix(-1 0 0 1 1920 0.383301)"/>
</clipPath>
<clipPath id="clip2_4575_4608">
<rect width="1920" height="250" fill="white" transform="translate(0 0.383301)"/>
</clipPath>
</defs>
</svg>
