<svg width="54" height="32" viewBox="0 0 54 32" xmlns="http://www.w3.org/2000/svg">
<path d="M53.9062 29.25C53.9062 30.6562 52.7812 31.5 51.75 31.5C50.9062 31.5 47.8125 30.75 44.9062 28.5C42.375 30.375 39.1875 31.3125 36 31.3125C32.7188 31.3125 29.5312 30.375 27 28.4062C24.375 30.375 21.1875 31.5 18 31.5C14.5312 31.5 10.9688 30.375 8.34375 28.5938C5.53125 31.125 2.90625 31.5 2.15625 31.5C0.84375 31.5 0 30.375 0 29.25C0 28.2188 0.75 27.2812 1.78125 27.0938C5.34375 26.4375 6.1875 23.25 8.25 23.25C8.8125 23.25 9.375 23.5312 9.9375 23.9062C11.625 25.7812 15 27 18 27C23.8125 27 24.8438 23.25 27 23.25C29.1562 23.25 30.0938 27 36 27C41.7188 27 42.75 23.25 44.9062 23.25C47.0625 23.25 47.625 26.25 52.0312 27.0938C53.0625 27.2812 53.9062 28.2188 53.9062 29.25ZM8.90625 12C5.625 12 2.90625 9.375 2.90625 6C2.90625 2.71875 5.53125 0 8.90625 0C12.1875 0 14.9062 2.71875 14.9062 6C14.9062 9.375 12.1875 12 8.90625 12ZM15.75 22.5C14.4375 22.5 13.5 21.5625 13.5 20.25C13.5 16.3125 14.9062 12.5625 17.625 9.65625L19.125 7.875C19.9688 6.9375 25.9688 0.28125 36.2812 0.28125C38.0625 0.28125 39.8438 0.46875 41.625 0.9375L44.625 1.59375C45.6562 1.875 46.4062 2.8125 46.4062 3.84375C46.4062 5.15625 45.2812 6 44.1562 6C43.9688 6 43.7812 6 43.5938 6L40.5938 5.25C39.1875 4.96875 37.7812 4.78125 36.2812 4.78125C31.5938 4.78125 28.4062 6.5625 28.0312 6.75L39.6562 17.1562C40.125 17.5312 40.4062 18.1875 40.4062 18.8438C40.4062 20.0625 39.375 21 38.1562 21C37.6875 21 37.125 20.8125 36.75 20.4375L24.1875 9.375C23.625 9.84375 23.0625 10.3125 22.5938 10.875L20.9062 12.6562C19.0312 14.8125 18 17.4375 18 20.25C18 21.5625 16.9688 22.5 15.75 22.5Z" />
</svg>
