<svg width="24" height="24" viewBox="0 0 24 24"  xmlns="http://www.w3.org/2000/svg">
<path d="M0 12C0 5.39062 5.34375 0 12 0C18.6094 0 24 5.39062 24 12C24 18.6562 18.6094 24 12 24C5.34375 24 0 18.6562 0 12ZM17.3906 9.9375C17.9062 9.42188 17.9062 8.625 17.3906 8.10938C16.875 7.59375 16.0781 7.59375 15.5625 8.10938L10.5 13.1719L8.39062 11.1094C7.875 10.5938 7.07812 10.5938 6.5625 11.1094C6.04688 11.625 6.04688 12.4219 6.5625 12.9375L9.5625 15.9375C10.0781 16.4531 10.875 16.4531 11.3906 15.9375L17.3906 9.9375Z" />
</svg>
