<svg width="29" height="19" viewBox="0 0 29 19"  xmlns="http://www.w3.org/2000/svg">
<path d="M27.0625 15.7969C27.6719 15.8906 28.0469 16.4531 27.9531 17.1094C27.8594 17.625 27.3906 18 26.8281 18C26.7812 18 26.7344 18 26.6406 18C25.5156 17.8125 24.4375 17.2969 23.4531 16.5C20.9219 18.4688 17.0312 18.4688 14.4531 16.5C13.1875 17.4844 11.5938 18 10 18C8.26562 18 6.48438 17.4375 5.17188 16.5469C4.375 17.2031 3.53125 17.7656 2.3125 18C1.70312 18.0938 1.09375 17.7188 1 17.1094C0.90625 16.4531 1.28125 15.8906 1.89062 15.7969C2.82812 15.6094 3.39062 15.1406 4.28125 14.2031C4.70312 13.7812 5.5 13.7812 5.92188 14.2031C6.76562 15.1406 8.45312 15.75 10 15.75C11.3594 15.75 12.7188 15.1875 13.6562 14.2031C14.0781 13.7812 14.875 13.7812 15.2969 14.2031C16.2344 15.1875 17.5938 15.75 19 15.75C20.3594 15.75 21.7188 15.1875 22.6562 14.2031C23.0781 13.7812 23.875 13.7812 24.2969 14.2031C25.0938 15.0469 26.0781 15.6094 27.0625 15.7969ZM27.0625 9.04688C27.6719 9.14062 28.0469 9.70312 27.9531 10.3594C27.8594 10.875 27.3906 11.25 26.875 11.25C26.7812 11.25 26.7344 11.25 26.6406 11.25C25.5156 11.0625 24.4375 10.5469 23.4531 9.75C20.9219 11.7188 17.0312 11.7188 14.5 9.75C13.1875 10.7344 11.5938 11.25 10 11.25C8.26562 11.25 6.48438 10.6875 5.17188 9.79688C4.375 10.4531 3.53125 11.0156 2.3125 11.25C1.70312 11.3438 1.09375 10.9688 1 10.3594C0.90625 9.70312 1.28125 9.14062 1.89062 9.04688C2.82812 8.85938 3.39062 8.39062 4.28125 7.45312C4.70312 7.03125 5.5 7.03125 5.92188 7.45312C6.76562 8.39062 8.45312 9 10 9C11.3594 9 12.7188 8.4375 13.6562 7.45312C14.0781 7.03125 14.875 7.03125 15.2969 7.45312C16.2344 8.4375 17.5938 9 19 9C20.3594 9 21.7188 8.4375 22.6562 7.45312C23.0781 7.03125 23.875 7.03125 24.2969 7.45312C25.0938 8.29688 26.0781 8.85938 27.0625 9.04688ZM2.3125 4.5C1.70312 4.59375 1.09375 4.21875 1 3.60938C0.90625 3 1.28125 2.39062 1.89062 2.29688C2.82812 2.10938 3.39062 1.64062 4.28125 0.703125C4.70312 0.28125 5.5 0.28125 5.92188 0.703125C6.76562 1.64062 8.45312 2.25 10 2.25C11.3594 2.25 12.7188 1.6875 13.6562 0.703125C14.0781 0.28125 14.875 0.28125 15.2969 0.703125C16.2344 1.6875 17.5938 2.25 19 2.25C20.3594 2.25 21.7188 1.6875 22.6562 0.703125C23.0781 0.28125 23.875 0.28125 24.2969 0.703125C25.0938 1.54688 26.0781 2.10938 27.0625 2.29688C27.6719 2.39062 28.0469 3 27.9531 3.60938C27.8594 4.125 27.3906 4.5 26.875 4.5C26.7812 4.5 26.7344 4.5 26.6406 4.5C25.5156 4.3125 24.4375 3.79688 23.4531 3C20.9219 4.96875 17.0312 4.96875 14.5 3C13.1875 3.98438 11.5938 4.5 10 4.5C8.26562 4.5 6.48438 3.9375 5.17188 3.04688C4.375 3.70312 3.53125 4.26562 2.3125 4.5Z" />
</svg>
