<svg width="24" height="24" viewBox="0 0 24 24"  xmlns="http://www.w3.org/2000/svg">
<path d="M22.7812 5.76562C23.4844 5.90625 24 6.51562 24 7.21875V12.2812C24 13.0312 23.4844 13.6406 22.7812 13.7812L7.78125 16.875C7.6875 16.9219 7.59375 16.9219 7.45312 16.9219C6.65625 16.9219 6 16.2656 6 15.4219V14.625H2.25V22.875C2.25 23.5312 1.73438 24 1.125 24C0.46875 24 0 23.5312 0 22.875V1.125C0 0.515625 0.46875 0 1.125 0C1.73438 0 2.25 0.515625 2.25 1.125V4.875H6V4.125C6 3.28125 6.65625 2.625 7.45312 2.625C7.59375 2.625 7.6875 2.625 7.78125 2.67188L22.7812 5.76562ZM6 12.375V7.125H2.25V12.375H6ZM17.25 6.89062L12.75 5.95312V13.5469L17.25 12.6094V6.89062ZM8.25 5.01562V14.4844L10.5 14.0156V5.48438L8.25 5.01562ZM21.75 11.6719V7.82812L19.5 7.35938V12.1406L21.75 11.6719Z" />
</svg>
