<svg width="21" height="24" viewBox="0 0 21 24"  xmlns="http://www.w3.org/2000/svg">
<path d="M15.1406 2.4375C18.5625 5.57812 21 10.7344 21 13.2188C21 19.1719 16.2656 24 10.5 24C4.6875 24 0 19.1719 0 13.2188C0 9.84375 3.23438 4.3125 7.875 0C9.65625 1.6875 11.25 3.46875 12.5156 5.25C13.3125 4.26562 14.1562 3.32812 15.1406 2.4375ZM14.25 18.375C16.5469 16.7812 17.0625 13.6406 15.7969 11.2031C15.6562 10.9219 15.4688 10.5938 15.2812 10.2656L12.5156 13.4062C12.5156 13.4062 8.20312 7.875 7.875 7.5C5.625 10.2656 4.5 11.8594 4.5 13.6406C4.5 17.2969 7.21875 19.5 10.5938 19.5C11.9531 19.5 13.2188 19.0781 14.25 18.375Z" />
</svg>
