<svg width="25" height="24" viewBox="0 0 25 24"  xmlns="http://www.w3.org/2000/svg">
<path d="M17.875 6.75C18.4844 6.75 19 7.26562 19 7.875C19 8.53125 18.4844 9 17.875 9H8.125C7.46875 9 7 8.53125 7 7.875C7 7.26562 7.46875 6.75 8.125 6.75H17.875ZM13.375 11.25C13.9844 11.25 14.5 11.7656 14.5 12.375C14.5 13.0312 13.9844 13.5 13.375 13.5H8.125C7.46875 13.5 7 13.0312 7 12.375C7 11.7656 7.46875 11.25 8.125 11.25H13.375ZM21.9531 0C23.6406 0 24.9531 1.35938 24.9531 3V16.4062C24.9531 18 23.5938 19.3594 21.9531 19.3594H15.2031L9.34375 23.7656C8.96875 24 8.45312 23.7656 8.45312 23.2969V19.4062H3.95312C2.26562 19.4062 0.953125 18.0938 0.953125 16.4531V3C0.953125 1.35938 2.26562 0 3.95312 0H21.9531ZM22.75 16.5V3C22.75 2.625 22.375 2.25 22 2.25H4C3.57812 2.25 3.25 2.625 3.25 3V16.5C3.25 16.9219 3.57812 17.25 4 17.25H10.75V20.0625L14.5 17.25H22C22.375 17.25 22.75 16.9219 22.75 16.5Z" />
</svg>
