<svg width="17" height="17" viewBox="0 0 17 17" xmlns="http://www.w3.org/2000/svg">
<path d="M15.4531 0.410156C15.9453 0.410156 16.4375 0.761719 16.4375 1.35938V6.49219C16.4375 6.84375 16.1211 7.16016 15.7344 7.16016H10.6367C10.0391 7.16016 9.6875 6.66797 9.6875 6.21094C9.6875 5.96484 9.75781 5.71875 9.96875 5.54297L11.5508 3.92578C10.5664 3.11719 9.30078 2.66016 7.96484 2.66016C4.87109 2.66016 2.375 5.19141 2.375 8.28516C2.375 11.3789 4.87109 13.875 7.96484 13.875C10.5664 13.875 11.1289 12.5391 12.043 12.5391C12.6758 12.5391 13.1328 13.0664 13.1328 13.6641C13.1328 14.8945 10.2852 16.125 7.96484 16.125C3.64062 16.125 0.125 12.6094 0.125 8.28516C0.125 3.92578 3.64062 0.410156 8 0.410156C9.89844 0.410156 11.7266 1.11328 13.1328 2.34375L14.8203 0.691406C14.9961 0.480469 15.2422 0.410156 15.4531 0.410156Z" />
</svg>



