<svg width="28" height="25" viewBox="0 0 28 25"  xmlns="http://www.w3.org/2000/svg">
<path d="M17 8.75C17.7969 8.75 18.5 9.45312 18.5 10.25C18.5 11.0938 17.7969 11.75 17 11.75H15.5V21.5H17.75C20.2344 21.5 22.25 19.4844 22.25 17V16.7188L21.875 17.0469C21.4531 17.5156 20.75 17.5156 20.3281 17.0469C19.8594 16.625 19.8594 15.9219 20.3281 15.4531L22.9531 12.8281C23.375 12.4062 24.0781 12.4062 24.5 12.8281L27.125 15.4531C27.5938 15.9219 27.5938 16.625 27.125 17.0469C26.7031 17.5156 26 17.5156 25.5781 17.0469L25.25 16.7188V17C25.25 21.1719 21.875 24.5 17.75 24.5H10.25C6.07812 24.5 2.75 21.1719 2.75 17V16.7188L2.375 17.0469C1.95312 17.5156 1.25 17.5156 0.828125 17.0469C0.359375 16.625 0.359375 15.9219 0.828125 15.4531L3.45312 12.8281C3.875 12.4062 4.57812 12.4062 5 12.8281L7.625 15.4531C8.09375 15.9219 8.09375 16.625 7.625 17.0469C7.20312 17.5156 6.5 17.5156 6.07812 17.0469L5.75 16.7188V17C5.75 19.4844 7.71875 21.5 10.25 21.5H12.5V11.75H11C10.1562 11.75 9.5 11.0938 9.5 10.25C9.5 9.45312 10.1562 8.75 11 8.75H11.4688C10.2969 7.95312 9.5 6.59375 9.5 5C9.5 2.51562 11.4688 0.5 14 0.5C16.4844 0.5 18.5 2.51562 18.5 5C18.5 6.59375 17.6562 7.95312 16.4844 8.75H17ZM14 6.5C14.7969 6.5 15.5 5.84375 15.5 5C15.5 4.20312 14.7969 3.5 14 3.5C13.1562 3.5 12.5 4.20312 12.5 5C12.5 5.84375 13.1562 6.5 14 6.5Z" />
</svg>
