<svg width="14" height="14" viewBox="0 0 14 14" fill="none" xmlns="http://www.w3.org/2000/svg">
<path d="M12.6875 11.4833C13.0391 11.8739 13.0391 12.4598 12.6875 12.8114C12.2969 13.202 11.7109 13.202 11.3594 12.8114L6.75 8.16296L2.10156 12.8114C1.71094 13.202 1.125 13.202 0.773438 12.8114C0.382812 12.4598 0.382812 11.8739 0.773438 11.4833L5.42188 6.83484L0.773438 2.1864C0.382812 1.79578 0.382812 1.20984 0.773438 0.858276C1.125 0.467651 1.71094 0.467651 2.0625 0.858276L6.75 5.54578L11.3984 0.897339C11.75 0.506714 12.3359 0.506714 12.6875 0.897339C13.0781 1.2489 13.0781 1.83484 12.6875 2.22546L8.03906 6.83484L12.6875 11.4833Z" fill="#636566"/>
</svg>
