<svg width="55" height="48" viewBox="0 0 55 48" fill="none" xmlns="http://www.w3.org/2000/svg">
<path d="M13.1875 23.5312C13.0938 24.375 13 25.125 13 25.875C13 27.75 13.375 29.5312 14.0312 31.125L11.5938 32.9062C11.4062 33 11.2188 33 11.0312 33C10.5625 33 10.1875 32.7188 10.0938 32.25L8.78125 25.2188L1.75 23.9062C1.28125 23.8125 1 23.4375 1 22.9688C1 22.7812 1 22.5938 1.09375 22.4062L5.125 16.5938L1 10.6875C0.90625 10.5 0.90625 10.3125 0.90625 10.125C0.90625 9.65625 1.28125 9.28125 1.75 9.1875L8.78125 7.875L10.0938 0.84375C10.1875 0.375 10.5625 0 11.0312 0C11.2188 0 11.4062 0.09375 11.5938 0.1875L17.5 4.3125L23.3125 0.1875C23.5 0.09375 23.6875 0 23.875 0C24.3438 0 24.7188 0.375 24.8125 0.84375L26.125 7.875L26.5938 7.96875C25.375 8.71875 24.1562 9.5625 23.2188 10.5938C21.7188 9.1875 19.6562 8.25 17.5 8.25C9.25 8.25 5.96875 19.125 13.1875 23.5312ZM13.9375 20.9062C9.71875 17.5312 12.1562 10.875 17.5 10.875C19.0938 10.875 20.5 11.625 21.5312 12.6562C21.25 13.125 20.9688 13.5 20.7812 13.875C17.5938 15.2812 15.25 17.8125 13.9375 20.9062ZM50.0312 17.25C53.0312 19.0312 55 22.3125 55 25.875C55 31.5 50.4062 36 44.875 36H26.125C20.5 36 16 31.5 16 25.875C16 21.375 18.9062 17.625 22.9375 16.3125C24.8125 12 29.0312 9 34 9C36.5312 9 38.9688 9.84375 40.9375 11.3438C41.2188 11.3438 41.5 11.25 41.875 11.25C45.625 11.25 48.9062 13.7812 50.0312 17.25ZM44.875 31.5C47.9688 31.5 50.5 29.0625 50.5 25.875C50.5 23.1562 48.5312 20.9062 45.9062 20.4375C45.9062 20.25 46 20.0625 46 19.875C46 17.625 44.125 15.75 41.875 15.75C41.125 15.75 40.375 16.0312 39.8125 16.4062C38.4062 14.625 36.3438 13.5 34 13.5C30.0625 13.5 26.875 16.5 26.5 20.3438C26.4062 20.3438 26.2188 20.25 26.125 20.25C22.9375 20.25 20.5 22.7812 20.5 25.875C20.5 29.0625 22.9375 31.5 26.125 31.5H44.875ZM49.75 39C50.9688 39 52 40.0312 52 41.3438C52 41.7188 51.8125 42.1875 51.5312 42.5625L48.5312 47.0625C48.1562 47.7188 47.4062 48 46.75 48C45.4375 48 44.5 47.0625 44.4062 45.75C44.4062 45.2812 44.5938 44.8125 44.875 44.4375L47.875 39.9375C48.25 39.2812 49 39 49.75 39ZM40.75 39C41.9688 39 43 40.0312 42.9062 41.3438C42.9062 41.7188 42.7188 42.1875 42.5312 42.5625L39.5312 47.0625C39.0625 47.7188 38.3125 48 37.6562 48C36.4375 48 35.5 47.0625 35.4062 45.75C35.4062 45.2812 35.5938 44.8125 35.875 44.4375L38.875 39.9375C39.25 39.2812 40 39 40.75 39ZM31.75 39C32.9688 39 34 40.0312 33.9062 41.3438C33.9062 41.7188 33.7188 42.1875 33.5312 42.5625L30.5312 47.0625C30.0625 47.7188 29.3125 48 28.6562 48C27.4375 48 26.5 47.0625 26.4062 45.75C26.4062 45.2812 26.5938 44.8125 26.875 44.4375L29.875 39.9375C30.25 39.2812 31 39 31.75 39ZM22.75 39C23.9688 39 25 40.0312 24.9062 41.3438C24.9062 41.7188 24.7188 42.1875 24.5312 42.5625L21.5312 47.0625C21.0625 47.7188 20.3125 48 19.6562 48C18.4375 48 17.5 47.0625 17.4062 45.75C17.4062 45.2812 17.5938 44.8125 17.875 44.4375L20.875 39.9375C21.25 39.2812 22 39 22.75 39Z" fill="#8FB5D6"/>
</svg>
