<svg width="19" height="17" viewBox="0 0 19 17" fill="none" xmlns="http://www.w3.org/2000/svg">
<path d="M10 0.75C14.957 0.75 18.9648 4.05469 18.9648 8.0625C18.9648 12.1055 14.957 15.375 10 15.375C8.83984 15.375 7.71484 15.1992 6.73047 14.8828C5.67578 15.6211 3.98828 16.5 1.84375 16.5C1.49219 16.5 1.17578 16.3242 1.03516 16.0078C0.929688 15.6914 0.964844 15.3398 1.21094 15.0938C1.24609 15.0938 2.33594 13.8984 2.82812 12.5273C1.66797 11.2969 1 9.75 1 8.0625C1 4.05469 5.00781 0.75 10 0.75ZM10 13.6875C14.0078 13.6875 17.3125 11.1914 17.3125 8.0625C17.3125 4.96875 14.0078 2.4375 10 2.4375C5.95703 2.4375 2.6875 4.96875 2.6875 8.0625C2.6875 9.57422 3.42578 10.6992 4.05859 11.3672L4.79688 12.1406L4.41016 13.125C4.23438 13.6172 3.98828 14.1094 3.70703 14.5312C4.55078 14.25 5.25391 13.8633 5.74609 13.5117L6.41406 13.0195L7.22266 13.2656C8.10156 13.5469 9.05078 13.6875 10 13.6875Z" fill="#F5F8FD"/>
</svg>
