<svg width="13" height="15" viewBox="0 0 13 15" fill="none" xmlns="http://www.w3.org/2000/svg">
<path d="M3.9375 11.0625C3.9375 11.3086 3.71875 11.5 3.5 11.5C3.25391 11.5 3.0625 11.3086 3.0625 11.0625V4.9375C3.0625 4.71875 3.25391 4.5 3.5 4.5C3.71875 4.5 3.9375 4.71875 3.9375 4.9375V11.0625ZM6.5625 11.0625C6.5625 11.3086 6.34375 11.5 6.125 11.5C5.87891 11.5 5.6875 11.3086 5.6875 11.0625V4.9375C5.6875 4.71875 5.87891 4.5 6.125 4.5C6.34375 4.5 6.5625 4.71875 6.5625 4.9375V11.0625ZM9.1875 11.0625C9.1875 11.3086 8.96875 11.5 8.75 11.5C8.50391 11.5 8.3125 11.3086 8.3125 11.0625V4.9375C8.3125 4.71875 8.50391 4.5 8.75 4.5C8.96875 4.5 9.1875 4.71875 9.1875 4.9375V11.0625ZM8.47656 0.753906L9.1875 1.875H11.8125C12.0312 1.875 12.25 2.09375 12.25 2.3125C12.25 2.55859 12.0312 2.75 11.8125 2.75H11.375V11.9375C11.375 13.168 10.3906 14.125 9.1875 14.125H3.0625C1.83203 14.125 0.875 13.168 0.875 11.9375V2.75H0.4375C0.191406 2.75 0 2.55859 0 2.3125C0 2.09375 0.191406 1.875 0.4375 1.875H3.03516L3.74609 0.753906C3.96484 0.371094 4.40234 0.125 4.83984 0.125H7.38281C7.82031 0.125 8.25781 0.371094 8.47656 0.753906ZM4.04688 1.875H8.17578L7.73828 1.21875C7.65625 1.08203 7.51953 1 7.38281 1H4.83984C4.70312 1 4.56641 1.08203 4.48438 1.21875L4.04688 1.875ZM1.75 11.9375C1.75 12.6758 2.32422 13.25 3.0625 13.25H9.1875C9.89844 13.25 10.5 12.6758 10.5 11.9375V2.75H1.75V11.9375Z" fill="#FF7F11"/>
</svg>
