<svg width="16" height="16" viewBox="0 0 16 16" fill="none" xmlns="http://www.w3.org/2000/svg">
<path d="M14.875 0C15.4688 0 16 0.375 16 0.96875V10.4062C16 10.7812 15.75 11.125 15.3125 11.2812C13.9688 11.8125 12.8438 12 11.8438 12C9.53125 12 7.9375 11.0312 5.625 11.0312C4.5 11.0312 3.15625 11.2812 1.5 12V15.25C1.5 15.6875 1.15625 16 0.75 16C0.3125 16 0 15.6875 0 15.25V0.75C0 0.34375 0.3125 0 0.75 0C1.15625 0 1.5 0.34375 1.5 0.75V1.03125C3.34375 0.28125 4.6875 0.03125 5.78125 0.03125C7.9375 0.03125 9.03125 1.03125 10.9062 1.03125C11.7812 1.03125 12.8438 0.8125 14.25 0.15625C14.4688 0.0625 14.6562 0 14.875 0ZM14.5 10V1.6875C13.1562 2.25 12 2.53125 10.9062 2.53125C9.75 2.53125 8.84375 2.21875 8.0625 1.96875C7.3125 1.75 6.65625 1.53125 5.78125 1.53125C4.75 1.53125 3.53125 1.8125 2.0625 2.40625L1.5 2.65625V10.375C2.9375 9.8125 4.3125 9.53125 5.625 9.53125C6.96875 9.53125 8.09375 9.8125 9.09375 10.0625C10.0312 10.2812 10.875 10.5 11.8438 10.5C12.6562 10.5 13.5312 10.3438 14.5 10Z" fill="#003C70"/>
</svg>
