<svg width="40" height="40" viewBox="0 0 40 40" fill="none" xmlns="http://www.w3.org/2000/svg">
<path d="M0.5 20C0.5 9.23045 9.23045 0.5 20 0.5C30.7696 0.5 39.5 9.23045 39.5 20C39.5 30.7696 30.7696 39.5 20 39.5C9.23045 39.5 0.5 30.7696 0.5 20Z" fill="#8FB5D6"/>
<path d="M0.5 20C0.5 9.23045 9.23045 0.5 20 0.5C30.7696 0.5 39.5 9.23045 39.5 20C39.5 30.7696 30.7696 39.5 20 39.5C9.23045 39.5 0.5 30.7696 0.5 20Z" stroke="#DADDE1"/>
<path d="M17.0938 9.5H22.8594C23.8438 9.5 24.6875 10.1562 24.9688 11.0469L25.4844 12.5H29C30.6406 12.5 32 13.8594 32 15.5V27.5C32 29.1875 30.6406 30.5 29 30.5H11C9.3125 30.5 8 29.1875 8 27.5V15.5C8 13.8594 9.3125 12.5 11 12.5H14.4688L14.9844 11.0469C15.2656 10.1562 16.1094 9.5 17.0938 9.5ZM20 26C22.4844 26 24.5 23.9844 24.5 21.5C24.5 19.0156 22.4844 17 20 17C17.4688 17 15.5 19.0156 15.5 21.5C15.5 23.9844 17.4688 26 20 26Z" fill="#F5F8FD"/>
</svg>
