<svg width="15" height="15" viewBox="0 0 15 15" fill="none" xmlns="http://www.w3.org/2000/svg">
<path d="M8 3.40625C9.96875 3.40625 11.5938 5.03125 11.5938 7C11.5938 9 9.96875 10.5938 8 10.5938C6 10.5938 4.40625 9 4.40625 7C4.40625 5.03125 6 3.40625 8 3.40625ZM8 9.34375C9.28125 9.34375 10.3125 8.3125 10.3125 7C10.3125 5.71875 9.28125 4.6875 8 4.6875C6.6875 4.6875 5.65625 5.71875 5.65625 7C5.65625 8.3125 6.71875 9.34375 8 9.34375ZM12.5625 3.28125C12.5625 3.75 12.1875 4.125 11.7188 4.125C11.25 4.125 10.875 3.75 10.875 3.28125C10.875 2.8125 11.25 2.4375 11.7188 2.4375C12.1875 2.4375 12.5625 2.8125 12.5625 3.28125ZM14.9375 4.125C15 5.28125 15 8.75 14.9375 9.90625C14.875 11.0312 14.625 12 13.8125 12.8438C13 13.6562 12 13.9062 10.875 13.9688C9.71875 14.0312 6.25 14.0312 5.09375 13.9688C3.96875 13.9062 3 13.6562 2.15625 12.8438C1.34375 12 1.09375 11.0312 1.03125 9.90625C0.96875 8.75 0.96875 5.28125 1.03125 4.125C1.09375 3 1.34375 2 2.15625 1.1875C3 0.375 3.96875 0.125 5.09375 0.0625C6.25 0 9.71875 0 10.875 0.0625C12 0.125 13 0.375 13.8125 1.1875C14.625 2 14.875 3 14.9375 4.125ZM13.4375 11.125C13.8125 10.2188 13.7188 8.03125 13.7188 7C13.7188 6 13.8125 3.8125 13.4375 2.875C13.1875 2.28125 12.7188 1.78125 12.125 1.5625C11.1875 1.1875 9 1.28125 8 1.28125C6.96875 1.28125 4.78125 1.1875 3.875 1.5625C3.25 1.8125 2.78125 2.28125 2.53125 2.875C2.15625 3.8125 2.25 6 2.25 7C2.25 8.03125 2.15625 10.2188 2.53125 11.125C2.78125 11.75 3.25 12.2188 3.875 12.4688C4.78125 12.8438 6.96875 12.75 8 12.75C9 12.75 11.1875 12.8438 12.125 12.4688C12.7188 12.2188 13.2188 11.75 13.4375 11.125Z" fill="#F5F8FD"/>
</svg>
