<svg width="16" height="13" viewBox="0 0 16 13" fill="none" xmlns="http://www.w3.org/2000/svg">
<path d="M4.55469 3.46875C5.86719 2.15625 8 2.15625 9.3125 3.46875C10.5781 4.71094 10.625 6.72656 9.47656 8.0625L9.33594 8.20312C9.125 8.4375 8.77344 8.46094 8.53906 8.27344C8.30469 8.0625 8.28125 7.71094 8.49219 7.47656L8.60938 7.33594C9.40625 6.44531 9.35938 5.10938 8.51562 4.26562C7.64844 3.375 6.21875 3.375 5.32812 4.26562L2.67969 6.91406C1.8125 7.80469 1.8125 9.21094 2.67969 10.1016C3.52344 10.9219 4.85938 10.9688 5.75 10.1953L5.89062 10.0781C6.125 9.86719 6.47656 9.89062 6.6875 10.125C6.89844 10.3594 6.875 10.7109 6.64062 10.9219L6.5 11.0391C5.16406 12.2109 3.14844 12.1406 1.88281 10.8984C0.570312 9.58594 0.570312 7.42969 1.88281 6.11719L4.55469 3.46875ZM11.4453 9.30469C10.1094 10.6172 7.97656 10.6172 6.66406 9.30469C5.39844 8.03906 5.35156 6.04688 6.5 4.71094L6.61719 4.57031C6.82812 4.33594 7.17969 4.3125 7.41406 4.52344C7.64844 4.73438 7.67188 5.08594 7.46094 5.32031L7.36719 5.4375C6.57031 6.32812 6.61719 7.66406 7.46094 8.50781C8.32812 9.375 9.75781 9.375 10.6484 8.50781L13.2969 5.85938C14.1641 4.96875 14.1641 3.5625 13.2969 2.67188C12.4531 1.85156 11.1172 1.80469 10.2266 2.57812L10.0859 2.69531C9.85156 2.90625 9.5 2.88281 9.28906 2.64844C9.07812 2.41406 9.10156 2.0625 9.33594 1.85156L9.47656 1.73438C10.8125 0.5625 12.8281 0.632812 14.0938 1.875C15.4062 3.1875 15.4062 5.32031 14.0938 6.65625L11.4453 9.30469Z" fill="#003C70"/>
</svg>
