<svg width="18" height="17" viewBox="0 0 18 17" fill="none" xmlns="http://www.w3.org/2000/svg">
<path d="M18 4.125V13.125C18 15.0234 16.4883 16.5 14.625 16.5H12.0938C11.6016 16.5 11.25 16.1484 11.25 15.6562C11.25 15.1992 11.6016 14.8125 12.0938 14.8125H14.625C15.5391 14.8125 16.3125 14.0742 16.3125 13.125V4.125C16.3125 3.21094 15.5391 2.4375 14.625 2.4375H12.0938C11.6016 2.4375 11.25 2.08594 11.25 1.59375C11.25 1.13672 11.6016 0.75 12.0938 0.75H14.625C16.4883 0.75 18 2.26172 18 4.125ZM12.1289 8.0625L7.62891 3.28125C7.3125 2.92969 6.78516 2.92969 6.43359 3.24609C6.08203 3.5625 6.08203 4.08984 6.39844 4.44141L9.5625 7.78125H0.84375C0.351562 7.78125 0 8.16797 0 8.625C0 9.11719 0.351562 9.46875 0.84375 9.46875H9.5625L6.39844 12.8438C6.08203 13.1953 6.08203 13.7227 6.43359 14.0391C6.60938 14.1797 6.82031 14.25 7.03125 14.25C7.24219 14.25 7.45312 14.1797 7.62891 14.0039L12.1289 9.22266C12.4453 8.90625 12.4453 8.37891 12.1289 8.0625Z" fill="#F5F8FD"/>
</svg>
