<svg width="22" height="24" viewBox="0 0 22 24" fill="none" xmlns="http://www.w3.org/2000/svg">
<path d="M13.25 14.25C17.7969 14.25 21.5 17.9531 21.5 22.5C21.5 23.3438 20.7969 24 20 24H2C1.15625 24 0.5 23.3438 0.5 22.5C0.5 17.9531 4.15625 14.25 8.75 14.25H13.25ZM2.75 21.75H19.2031C18.8281 18.7969 16.2969 16.5 13.25 16.5H8.75C5.65625 16.5 3.125 18.7969 2.75 21.75ZM11 12C7.67188 12 5 9.32812 5 6C5 2.71875 7.67188 0 11 0C14.2812 0 17 2.71875 17 6C17 9.32812 14.2812 12 11 12ZM11 2.25C8.89062 2.25 7.25 3.9375 7.25 6C7.25 8.10938 8.89062 9.75 11 9.75C13.0625 9.75 14.75 8.10938 14.75 6C14.75 3.9375 13.0625 2.25 11 2.25Z" fill="#1EA896"/>
</svg>
