<svg width="19" height="21" viewBox="0 0 19 21" fill="none" xmlns="http://www.w3.org/2000/svg">
<path d="M11 1.75V2.45312C13.8125 2.92188 16 5.38281 16 8.3125V9.64062C16 11.3984 16.5859 13.1172 17.6797 14.5234L18.2656 15.2266C18.5 15.5391 18.5391 15.9297 18.3828 16.2422C18.2266 16.5547 17.9141 16.75 17.5625 16.75H1.9375C1.54688 16.75 1.23438 16.5547 1.07812 16.2422C0.921875 15.9297 0.960938 15.5391 1.19531 15.2266L1.78125 14.5234C2.875 13.1172 3.5 11.3984 3.5 9.64062V8.3125C3.5 5.38281 5.64844 2.92188 8.5 2.45312V1.75C8.5 1.08594 9.04688 0.5 9.75 0.5C10.4141 0.5 11 1.08594 11 1.75ZM9.4375 4.25C7.17188 4.25 5.375 6.08594 5.375 8.3125V9.64062C5.375 11.5156 4.82812 13.3125 3.8125 14.875H15.6484C14.6328 13.3125 14.125 11.5156 14.125 9.64062V8.3125C14.125 6.08594 12.2891 4.25 10.0625 4.25H9.4375ZM12.25 18C12.25 18.6641 11.9766 19.3281 11.5078 19.7969C11.0391 20.2656 10.375 20.5 9.75 20.5C9.08594 20.5 8.42188 20.2656 7.95312 19.7969C7.48438 19.3281 7.25 18.6641 7.25 18H12.25Z" fill="#636566"/>
</svg>
