<svg width="12" height="18" viewBox="0 0 12 18" fill="none" xmlns="http://www.w3.org/2000/svg">
<path d="M8.25 5.5C8.65625 5.5 9 5.84375 9 6.25C9 6.6875 8.65625 7 8.25 7H3.75C3.3125 7 3 6.6875 3 6.25C3 5.84375 3.3125 5.5 3.75 5.5H8.25ZM8.25 11C8.65625 11 9 11.3438 9 11.75C9 12.1875 8.65625 12.5 8.25 12.5H3.75C3.3125 12.5 3 12.1875 3 11.75C3 11.3438 3.3125 11 3.75 11H8.25ZM3 9C3 8.59375 3.3125 8.25 3.75 8.25H8.25C8.65625 8.25 9 8.59375 9 9C9 9.4375 8.65625 9.75 8.25 9.75H3.75C3.3125 9.75 3 9.4375 3 9ZM2.5 2.28125L3.75 1.1875C4.03125 0.96875 4.4375 0.96875 4.71875 1.1875L6 2.28125L7.25 1.1875C7.53125 0.96875 7.9375 0.96875 8.21875 1.1875L9.5 2.28125L10.75 1.1875C10.9688 1 11.2812 0.96875 11.5625 1.09375C11.8125 1.21875 12 1.46875 12 1.75V16.25C12 16.5625 11.8125 16.8125 11.5625 16.9375C11.2812 17.0625 10.9688 17.0312 10.75 16.8438L9.5 15.75L8.21875 16.8438C7.9375 17.0625 7.53125 17.0625 7.25 16.8438L6 15.75L4.71875 16.8438C4.4375 17.0625 4.03125 17.0625 3.75 16.8438L2.5 15.75L1.21875 16.8438C1 17.0312 0.6875 17.0625 0.40625 16.9375C0.15625 16.8125 0 16.5625 0 16.25V1.75C0 1.46875 0.15625 1.21875 0.40625 1.09375C0.6875 0.96875 1 1 1.21875 1.1875L2.5 2.28125ZM2 14.1875C2.28125 13.9688 2.6875 13.9688 2.96875 14.1875L4.25 15.2812L5.5 14.1875C5.78125 13.9688 6.1875 13.9688 6.46875 14.1875L7.75 15.2812L9 14.1875C9.28125 13.9688 9.6875 13.9688 9.96875 14.1875L10.5 14.625V3.40625L9.96875 3.84375C9.6875 4.0625 9.28125 4.0625 9 3.84375L7.75 2.75L6.46875 3.84375C6.1875 4.0625 5.78125 4.0625 5.5 3.84375L4.25 2.75L2.96875 3.84375C2.6875 4.0625 2.28125 4.0625 2 3.84375L1.5 3.40625V14.625L2 14.1875Z" fill="#003C70"/>
</svg>
