<svg width="12" height="12" viewBox="0 0 12 12" fill="none" xmlns="http://www.w3.org/2000/svg">
<path fill-rule="evenodd" clip-rule="evenodd" d="M8.51519 1.23368C8.55012 1.26851 8.57782 1.30989 8.59673 1.35545C8.61563 1.40101 8.62536 1.44985 8.62536 1.49918C8.62536 1.5485 8.61563 1.59734 8.59673 1.6429C8.57782 1.68846 8.55012 1.72984 8.51519 1.76468L4.27994 5.99918L8.51519 10.2337C8.58561 10.3041 8.62517 10.3996 8.62517 10.4992C8.62517 10.5988 8.58561 10.6943 8.51519 10.7647C8.44478 10.8351 8.34928 10.8746 8.24969 10.8746C8.15011 10.8746 8.05461 10.8351 7.98419 10.7647L3.48419 6.26468C3.44927 6.22984 3.42156 6.18846 3.40266 6.1429C3.38375 6.09734 3.37402 6.0485 3.37402 5.99918C3.37402 5.94985 3.38375 5.90101 3.40266 5.85545C3.42156 5.80989 3.44927 5.76851 3.48419 5.73368L7.98419 1.23368C8.01903 1.19875 8.06041 1.17105 8.10597 1.15214C8.15153 1.13324 8.20037 1.1235 8.24969 1.1235C8.29902 1.1235 8.34786 1.13324 8.39342 1.15214C8.43898 1.17105 8.48036 1.19875 8.51519 1.23368Z" fill="#003C70"/>
</svg>
