<svg width="22" height="19" viewBox="0 0 22 19" fill="none" xmlns="http://www.w3.org/2000/svg">
<path d="M7.75 1.375C7.75 0.777344 8.24219 0.25 8.875 0.25H13.375C13.9727 0.25 14.5 0.777344 14.5 1.375V2.5H16.1875C17.1016 2.5 17.875 3.27344 17.875 4.1875V8.6875L19.4219 9.21484C20.2305 9.49609 20.4414 10.5508 19.8086 11.1133L16.2578 14.3828C15.6953 14.6992 15.0625 14.9102 14.5 14.9102C13.7969 14.9102 13.0586 14.6289 12.3906 14.207C11.6172 13.6445 10.5977 13.6445 9.82422 14.207C9.22656 14.5938 8.48828 14.9102 7.75 14.9102C7.15234 14.9102 6.51953 14.6992 5.95703 14.3828L2.40625 11.1133C1.77344 10.5508 1.98438 9.49609 2.79297 9.21484L4.375 8.6875V4.1875C4.375 3.27344 5.11328 2.5 6.0625 2.5H7.75V1.375ZM6.625 7.94922L10.3867 6.68359C10.8438 6.54297 11.3711 6.54297 11.8281 6.68359L15.625 7.94922V4.75H6.625V7.94922ZM14.5 16C15.4141 16 16.4336 15.6484 17.207 15.0859C17.6289 14.8047 18.1914 14.8398 18.5781 15.1562C19.1055 15.5781 19.7383 15.8945 20.3711 16.0352C20.9688 16.1758 21.3555 16.8086 21.2148 17.4062C21.0742 18.0039 20.4414 18.3906 19.8438 18.25C19 18.0391 18.2617 17.6523 17.8047 17.3711C16.7852 17.8984 15.6602 18.25 14.5 18.25C13.375 18.25 12.3555 17.9336 11.6523 17.6172C11.4414 17.5117 11.2656 17.4062 11.125 17.3359C10.9492 17.4062 10.7734 17.5117 10.5625 17.6172C9.85938 17.9336 8.83984 18.25 7.75 18.25C6.55469 18.25 5.42969 17.8984 4.41016 17.3711C3.95312 17.6523 3.21484 18.0391 2.37109 18.25C1.77344 18.3906 1.14062 18.0039 1 17.4062C0.859375 16.8086 1.24609 16.1758 1.84375 16.0352C2.47656 15.8945 3.10938 15.5781 3.63672 15.1562C4.02344 14.8398 4.58594 14.8047 5.00781 15.0859C5.78125 15.6484 6.80078 16 7.75 16C8.69922 16 9.68359 15.6484 10.457 15.0859C10.8438 14.8047 11.3711 14.8047 11.7578 15.0859C12.5312 15.6484 13.5156 16 14.5 16Z" fill="#F5F8FD"/>
</svg>
