<svg width="200" height="200" viewBox="0 0 200 200" fill="none" xmlns="http://www.w3.org/2000/svg">
<path d="M0.5 4C0.5 2.067 2.067 0.5 4 0.5H196C197.933 0.5 199.5 2.067 199.5 4V196C199.5 197.933 197.933 199.5 196 199.5H4C2.067 199.5 0.5 197.933 0.5 196V4Z" fill="#B5CEE3"/>
<path d="M0.5 4C0.5 2.067 2.067 0.5 4 0.5H196C197.933 0.5 199.5 2.067 199.5 4V196C199.5 197.933 197.933 199.5 196 199.5H4C2.067 199.5 0.5 197.933 0.5 196V4Z" stroke="white"/>
<path d="M126.906 114.25C126.906 115.656 125.781 116.5 124.75 116.5C123.906 116.5 120.812 115.75 117.906 113.5C115.375 115.375 112.188 116.312 109 116.312C105.719 116.312 102.531 115.375 100 113.406C97.375 115.375 94.1875 116.5 91 116.5C87.5312 116.5 83.9688 115.375 81.3438 113.594C78.5312 116.125 75.9062 116.5 75.1562 116.5C73.8438 116.5 73 115.375 73 114.25C73 113.219 73.75 112.281 74.7812 112.094C78.3438 111.438 79.1875 108.25 81.25 108.25C81.8125 108.25 82.375 108.531 82.9375 108.906C84.625 110.781 88 112 91 112C96.8125 112 97.8438 108.25 100 108.25C102.156 108.25 103.094 112 109 112C114.719 112 115.75 108.25 117.906 108.25C120.062 108.25 120.625 111.25 125.031 112.094C126.062 112.281 126.906 113.219 126.906 114.25ZM81.9062 97C78.625 97 75.9062 94.375 75.9062 91C75.9062 87.7188 78.5312 85 81.9062 85C85.1875 85 87.9062 87.7188 87.9062 91C87.9062 94.375 85.1875 97 81.9062 97ZM88.75 107.5C87.4375 107.5 86.5 106.562 86.5 105.25C86.5 101.312 87.9062 97.5625 90.625 94.6562L92.125 92.875C92.9688 91.9375 98.9688 85.2812 109.281 85.2812C111.062 85.2812 112.844 85.4688 114.625 85.9375L117.625 86.5938C118.656 86.875 119.406 87.8125 119.406 88.8438C119.406 90.1562 118.281 91 117.156 91C116.969 91 116.781 91 116.594 91L113.594 90.25C112.188 89.9688 110.781 89.7812 109.281 89.7812C104.594 89.7812 101.406 91.5625 101.031 91.75L112.656 102.156C113.125 102.531 113.406 103.188 113.406 103.844C113.406 105.062 112.375 106 111.156 106C110.688 106 110.125 105.812 109.75 105.438L97.1875 94.375C96.625 94.8438 96.0625 95.3125 95.5938 95.875L93.9062 97.6562C92.0312 99.8125 91 102.438 91 105.25C91 106.562 89.9688 107.5 88.75 107.5Z" fill="#8FB5D6"/>
</svg>



