<svg width="17" height="18" viewBox="0 0 17 18" fill="none" xmlns="http://www.w3.org/2000/svg">
<path d="M16.0312 7.96875C16.625 8.53125 16.625 9.5 16.0312 10.0625L9.53125 16.5625C8.96875 17.1562 8 17.1562 7.4375 16.5625L0.9375 10.0625C0.34375 9.5 0.34375 8.53125 0.9375 7.96875L7.40625 1.4375C7.96875 0.875 8.9375 0.875 9.53125 1.4375L16.0312 7.96875ZM7.75 5.75V9.25C7.75 9.65625 8.0625 10 8.5 10C8.90625 10 9.25 9.65625 9.25 9.25V5.75C9.25 5.3125 8.90625 5 8.5 5C8.0625 5 7.75 5.3125 7.75 5.75ZM8.5 13C9.03125 13 9.5 12.5312 9.5 12C9.5 11.4375 9.03125 11 8.5 11C7.9375 11 7.5 11.4375 7.5 12C7.5 12.5312 7.9375 13 8.5 13Z" fill="#FF7F11"/>
</svg>
