<svg width="17" height="16" viewBox="0 0 17 16" fill="none" xmlns="http://www.w3.org/2000/svg">
<path d="M13.8125 3.28125C15.5938 3.375 17 4.84375 17 6.625C17 8.5 15.4688 10 13.625 10H4.375C2.5 10 1 8.5 1 6.625C1 5.28125 1.78125 4.09375 3 3.5625C3.09375 1.59375 4.75 0 6.75 0C7.8125 0 8.8125 0.46875 9.5 1.25C9.90625 1.09375 10.3125 1 10.75 1C12.1875 1 13.4062 1.9375 13.8125 3.28125ZM13.625 8.5C14.6562 8.5 15.5 7.6875 15.5 6.625C15.5 5.59375 14.6562 4.75 13.625 4.75H12.5312L12.4688 4.09375C12.375 3.1875 11.625 2.5 10.75 2.5C10.375 2.5 10.0312 2.625 9.71875 2.84375L9.0625 3.3125L8.65625 2.625C8.25 1.9375 7.53125 1.5 6.75 1.5C5.5 1.5 4.5 2.53125 4.5 3.75C4.5 3.8125 4.5 3.84375 4.5 3.875L4.59375 4.65625L3.9375 4.8125C3.09375 5 2.5 5.75 2.5 6.625C2.5 7.6875 3.3125 8.5 4.375 8.5H13.625ZM7.1875 11.0625C7.5625 11.25 7.75 11.6875 7.5625 12.0625L6.09375 15.5625C5.96875 15.8438 5.6875 16 5.40625 16C5.3125 16 5.1875 16 5.125 15.9688C4.75 15.7812 4.5625 15.3438 4.75 14.9688L6.21875 11.4688C6.375 11.0938 6.8125 10.9062 7.1875 11.0625ZM3.53125 11.0625C3.90625 11.25 4.09375 11.6875 3.90625 12.0625L2.4375 15.5625C2.3125 15.8438 2.03125 16 1.71875 16C1.625 16 1.53125 16 1.46875 15.9688C1.09375 15.7812 0.90625 15.3438 1.0625 14.9688L2.53125 11.4688C2.71875 11.0938 3.15625 10.9062 3.53125 11.0625ZM10.875 11.0625C11.25 11.25 11.4062 11.6875 11.2188 12.0625L9.75 15.5625C9.625 15.8438 9.375 16 9.0625 16C8.96875 16 8.875 16 8.8125 15.9688C8.40625 15.7812 8.25 15.3438 8.40625 14.9688L9.875 11.4688C10.0312 11.0938 10.4688 10.9062 10.875 11.0625ZM14.5312 11.0625C14.9062 11.25 15.0938 11.6875 14.875 12.0625L13.4062 15.5625C13.2812 15.8438 13 16 12.7188 16C12.625 16 12.5312 16 12.4688 15.9688C12.0938 15.7812 11.9062 15.3438 12.0625 14.9688L13.5312 11.4688C13.7188 11.0938 14.1562 10.9062 14.5312 11.0625Z" fill="#8FB5D6"/>
</svg>
