<svg width="21" height="17" viewBox="0 0 21 17" fill="none" xmlns="http://www.w3.org/2000/svg">
<path d="M3.96875 7.5C4 8.84375 4.71875 9.96875 5.8125 10.5625C5.28125 11.3438 5 12.2812 5 13.25C5 13.5 5.03125 13.75 5.0625 14C4.84375 14.0625 4.625 13.9375 4.5625 13.6875L4.0625 10.9375L1.3125 10.4375C1.03125 10.375 0.90625 10.0625 1.0625 9.8125L2.65625 7.53125L1.0625 5.21875C0.90625 4.96875 1.03125 4.65625 1.3125 4.59375L4.0625 4.09375L4.5625 1.34375C4.625 1.0625 4.9375 0.9375 5.1875 1.09375L7.46875 2.6875L9.78125 1.09375C10.0312 0.9375 10.3438 1.0625 10.4062 1.34375L10.8438 4.125L11.4688 4.25C11.3125 4.4375 11.1875 4.625 11.0625 4.84375C10.75 5.03125 10.4688 5.25 10.2188 5.46875C9.59375 4.59375 8.59375 4.03125 7.4375 4.03125C5.53125 4.03125 3.96875 5.59375 3.96875 7.5ZM4.96875 7.5C5 6.125 6.09375 5 7.46875 5C8.40625 5 9.1875 5.5 9.59375 6.25C9.375 6.625 9.1875 7 9.09375 7.4375C8.53125 7.84375 8.03125 8.375 7.65625 9C7.21875 9.1875 6.84375 9.46875 6.46875 9.8125C5.5625 9.40625 4.96875 8.53125 4.96875 7.5ZM21 8.40625C21 9.3125 20.5625 10.125 19.9375 10.6875C20.5938 11.375 21 12.25 21 13.25C21 15.3438 19.3125 17 17.25 17H9.75C7.65625 17 6 15.3438 6 13.25C6 11.6875 6.96875 10.3125 8.375 9.78125C8.75 9.03125 9.3125 8.4375 10 8.03125C10.1562 6.9375 10.8438 6 11.8438 5.5625C12.4375 4.34375 13.6875 3.5 15.125 3.5C16.4375 3.5 17.625 4.25 18.25 5.34375C19.7812 5.5 21 6.84375 21 8.40625ZM17.25 15.5C18.4688 15.5 19.5 14.5 19.5 13.25C19.5 12.0312 18.4688 11 17.25 11C17.125 11 17.0312 11.0312 16.9062 11.0312C16.7188 10.1562 15.9375 9.5 15 9.5C14.5625 9.5 14.1875 9.65625 13.8438 9.875C13.4062 9.34375 12.7188 9 12 9C10.7812 9 9.75 9.875 9.53125 11.0312C8.375 11.125 7.5 12.0938 7.5 13.25C7.5 14.5 8.5 15.5 9.75 15.5H17.25ZM18.6562 9.8125C19.1562 9.53125 19.5 9 19.5 8.40625C19.5 7.53125 18.7812 6.8125 17.875 6.8125C17.6562 6.8125 17.4375 6.875 17.2188 7C17.125 5.875 16.2188 5.03125 15.125 5.03125C14.0312 5.03125 13.1562 5.8125 13.0312 6.8125C12.5 6.84375 12.0625 7.125 11.7812 7.53125C11.8438 7.53125 11.9062 7.5 12 7.5C12.75 7.5 13.4688 7.71875 14.0938 8.125C14.375 8.0625 14.6875 8 15 8C16.1875 8 17.25 8.625 17.9062 9.5625C18.1562 9.625 18.4062 9.71875 18.6562 9.8125Z" fill="#8FB5D6"/>
</svg>
