<svg width="16" height="16" viewBox="0 0 16 16" fill="none" xmlns="http://www.w3.org/2000/svg">
<path d="M15.125 9.21875C15.1875 9.40625 15.1562 9.625 15.0625 9.78125C14.9375 9.9375 14.7812 10.0938 14.5938 10.125L13.5938 10.4062L14.625 11C15 11.1875 15.125 11.6562 14.9062 12C14.7188 12.375 14.25 12.5 13.875 12.2812L12.8438 11.6875L13.125 12.6875C13.2188 13.0938 13 13.5 12.5938 13.5938C12.1875 13.7188 11.7812 13.4688 11.6875 13.0625L11.0312 10.625L8.75 9.3125V11.9688L10.5 13.75C10.8125 14.0312 10.8125 14.5 10.5 14.7812C10.375 14.9375 10.1875 15 10 15C9.78125 15 9.59375 14.9375 9.46875 14.7812L8.75 14.0625V15.25C8.75 15.6875 8.40625 16 8 16C7.5625 16 7.25 15.6875 7.25 15.25V14.0625L6.5 14.7812C6.21875 15.0938 5.75 15.0938 5.46875 14.7812C5.15625 14.5 5.15625 14.0312 5.46875 13.75L7.25 11.9688V9.3125L4.9375 10.625L4.28125 13.0625C4.1875 13.4688 3.78125 13.7188 3.375 13.5938C2.96875 13.5 2.75 13.0938 2.84375 12.6875L3.125 11.6875L2.09375 12.2812C1.71875 12.5 1.25 12.375 1.0625 12C0.84375 11.6562 0.96875 11.1875 1.34375 11L2.375 10.4062L1.375 10.125C0.96875 10.0312 0.75 9.625 0.84375 9.21875C0.96875 8.8125 1.375 8.5625 1.75 8.6875L4.1875 9.34375L6.5 8L4.1875 6.6875L1.78125 7.34375C1.375 7.4375 0.96875 7.21875 0.84375 6.8125C0.75 6.40625 0.96875 6 1.375 5.90625L2.375 5.625L1.34375 5.03125C0.96875 4.84375 0.84375 4.375 1.0625 4C1.25 3.65625 1.71875 3.53125 2.09375 3.75L3.125 4.34375L2.84375 3.34375C2.75 2.9375 2.96875 2.53125 3.375 2.4375C3.78125 2.3125 4.1875 2.5625 4.28125 2.96875L4.9375 5.40625L7.25 6.71875V4.0625L5.46875 2.28125C5.15625 2 5.15625 1.53125 5.46875 1.25C5.75 0.9375 6.21875 0.9375 6.5 1.25L7.25 1.96875V0.75C7.25 0.34375 7.5625 0 8 0C8.40625 0 8.75 0.34375 8.75 0.75V1.96875L9.46875 1.25C9.75 0.9375 10.2188 0.9375 10.5 1.25C10.8125 1.53125 10.8125 2 10.5 2.28125L8.75 4.0625V6.71875L11.0312 5.40625L11.6875 2.96875C11.7812 2.5625 12.1875 2.3125 12.5938 2.4375C12.7812 2.5 12.9375 2.625 13.0312 2.78125C13.1562 2.9375 13.1875 3.15625 13.125 3.34375L12.8438 4.34375L13.875 3.75C14.25 3.53125 14.7188 3.65625 14.9062 4C15.125 4.375 15 4.84375 14.625 5.03125L13.5938 5.625L14.5938 5.90625C15 6 15.2188 6.40625 15.125 6.8125C15 7.21875 14.5938 7.46875 14.2188 7.34375L11.7812 6.6875L9.5 8L11.7812 9.3125L14.1875 8.65625C14.5938 8.5625 15 8.8125 15.125 9.21875Z" fill="#8FB5D6" />
</svg>
