<svg width="20" height="16" viewBox="0 0 20 16" fill="none" xmlns="http://www.w3.org/2000/svg">
<path d="M16.8125 9.28125C18.5938 9.375 20 10.8438 20 12.625C20 14.5 18.4688 16 16.625 16H7.34375C5.5 16 3.96875 14.5 3.96875 12.625C3.96875 11.2812 4.78125 10.0938 6 9.5625C6 9.375 6.03125 9.1875 6.0625 9H3.25C1.4375 9 0 7.5625 0 5.75C0 4.15625 1.15625 2.84375 2.6875 2.5625C3.15625 1.0625 4.5625 0 6.15625 0C7.4375 0 8.59375 0.6875 9.25 1.75C9.46875 1.6875 9.6875 1.6875 9.90625 1.6875C11.6875 1.6875 13.1562 3.125 13.1562 4.9375C13.1562 5.71875 12.8438 6.5 12.3125 7.09375C12.375 7.15625 12.4688 7.1875 12.5 7.25C12.9062 7.09375 13.3125 7 13.75 7C15.1875 7 16.4062 7.9375 16.8125 9.28125ZM3.25 7.5H6.75C7.4375 6.59375 8.5 6 9.71875 6C10.1875 6 10.625 6.125 11.0312 6.25L11.0625 6.21875C11.4375 5.875 11.6562 5.4375 11.6562 4.9375C11.6562 3.96875 10.875 3.1875 9.90625 3.1875C9.65625 3.1875 9.40625 3.21875 9.1875 3.34375L8.4375 3.65625L8.15625 2.90625C7.84375 2.0625 7.0625 1.5 6.15625 1.5C5.09375 1.5 4.15625 2.3125 4.03125 3.375L3.9375 4.03125L3.1875 4C2.25 4.03125 1.46875 4.8125 1.46875 5.75C1.46875 6.71875 2.28125 7.5 3.25 7.5ZM16.625 14.5C17.6562 14.5 18.5 13.6875 18.5 12.625C18.5 11.5938 17.6562 10.75 16.625 10.75H15.5312L15.4688 10.0938C15.375 9.1875 14.625 8.5 13.75 8.5C13.375 8.5 13.0312 8.625 12.7188 8.84375L12.0625 9.3125L11.6562 8.625C11.25 7.9375 10.5312 7.5 9.75 7.5C8.5 7.5 7.5 8.53125 7.5 9.75C7.5 9.8125 7.5 9.84375 7.5 9.875L7.59375 10.6562L6.9375 10.8125C6.09375 11 5.46875 11.75 5.46875 12.625C5.46875 13.6875 6.3125 14.5 7.375 14.5H16.625Z" fill="#8FB5D6"/>
</svg>
