<svg width="16" height="16" viewBox="0 0 16 16" fill="none" xmlns="http://www.w3.org/2000/svg">
<path d="M12.8125 3.28125C14.5938 3.375 16 4.84375 16 6.625C16 8.5 14.4688 10 12.5938 10H10.2188L10.8438 8.5H12.625C13.6562 8.5 14.5 7.6875 14.5 6.625C14.5 5.59375 13.6562 4.75 12.625 4.75H11.5312L11.4688 4.09375C11.375 3.1875 10.625 2.5 9.75 2.5C9.375 2.5 9.03125 2.625 8.71875 2.84375L8.0625 3.3125L7.65625 2.625C7.25 1.9375 6.53125 1.5 5.75 1.5C4.5 1.5 3.5 2.53125 3.5 3.75C3.5 3.8125 3.5 3.84375 3.5 3.875L3.59375 4.65625L2.9375 4.8125C2.09375 5 1.5 5.75 1.5 6.625C1.5 7.6875 2.3125 8.5 3.375 8.5H6.3125L4.65625 10H3.375C1.5 10 0 8.5 0 6.625C0 5.28125 0.78125 4.09375 2 3.5625C2.09375 1.59375 3.75 0 5.75 0C6.8125 0 7.8125 0.46875 8.5 1.25C8.90625 1.09375 9.3125 1 9.75 1C11.1562 1 12.4062 1.9375 12.8125 3.28125ZM10.75 11C10.9375 11 11.125 11.1562 11.1875 11.3438C11.2812 11.5312 11.2188 11.75 11.0625 11.875L6.65625 15.875C6.5625 15.9688 6.46875 16 6.34375 16C6.21875 16 6.125 15.9688 6.03125 15.9375C5.84375 15.7812 5.78125 15.5312 5.875 15.3125L7.25 12H5.25C5.03125 12 4.84375 11.875 4.78125 11.6875C4.6875 11.5 4.75 11.2812 4.90625 11.1562L9.3125 7.15625C9.46875 7 9.71875 6.96875 9.9375 7.09375C10.125 7.25 10.1875 7.5 10.0938 7.71875L8.71875 11H10.75Z" fill="#8FB5D6"/>
</svg>
