<svg width="18" height="18" viewBox="0 0 18 18" fill="none" xmlns="http://www.w3.org/2000/svg">
<path d="M16.7812 11.1562C17 11.5 17.0625 11.9062 16.9062 12.2812C16.75 12.6562 16.4062 12.9375 16 13L13.4375 13.4688L12.9688 16.0312C12.9062 16.4375 12.625 16.7812 12.25 16.9375C12.125 17 11.9688 17 11.8125 17C11.5625 17 11.3438 16.9375 11.125 16.8125L9 15.3125L6.84375 16.8125C6.5 17.0312 6.09375 17.0625 5.71875 16.9375C5.34375 16.7812 5.0625 16.4375 5 16.0312L4.53125 13.4688L1.96875 13C1.5625 12.9375 1.21875 12.6562 1.0625 12.2812C0.90625 11.9062 0.96875 11.5 1.1875 11.1562L2.6875 9L1.1875 6.875C0.96875 6.53125 0.90625 6.125 1.0625 5.75C1.21875 5.375 1.5625 5.09375 1.96875 5.03125L4.53125 4.5625L5 2C5.0625 1.59375 5.34375 1.25 5.71875 1.09375C6.09375 0.9375 6.5 1 6.84375 1.21875L9 2.71875L11.125 1.21875C11.4688 1 11.875 0.9375 12.25 1.09375C12.625 1.25 12.9062 1.59375 12.9688 2L13.4375 4.5625L16 5.03125C16.4062 5.09375 16.75 5.375 16.9062 5.75C17.0625 6.125 17 6.53125 16.7812 6.875L15.2812 9.03125L16.7812 11.1562ZM15.25 11.625L13.4688 9L15.25 6.40625L12.1562 5.84375L11.5938 2.75L9 4.53125L6.375 2.75L5.8125 5.84375L2.71875 6.40625L4.5 9L2.71875 11.625L5.8125 12.1875L6.375 15.2812L9 13.5L11.5938 15.2812L12.1562 12.1875L15.25 11.625ZM9 5.5C10.9062 5.5 12.4688 7.09375 12.4688 8.96875C12.4688 10.875 10.875 12.4375 9 12.4375C7.09375 12.4375 5.5 10.9062 5.5 8.96875C5.5 7.0625 7.0625 5.5 9 5.5ZM9 11C10.0938 11 10.9688 10.0625 10.9688 9C10.9688 7.90625 10.0938 7 9 7C7.875 7 7 7.875 7 9C7 10.0938 7.875 11 9 11Z" fill="#8FB5D6"/>
</svg>
